<svg width="676" height="550" viewBox="0 0 676 550" fill="none" xmlns="http://www.w3.org/2000/svg">
<path d="M83.274 429.253L603.277 414.353C627.477 413.653 647.377 395.153 649.777 371.053L674.878 123.053C677.678 94.953 655.878 70.453 627.677 70.053L48.8738 62.053C19.6736 61.653 -3.2265 87.153 0.373535 116.153L34.0737 387.053C37.1738 411.653 58.4739 429.953 83.274 429.253Z" fill="#EAF9F3"/>
<mask id="mask0" style="mask-type:alpha" maskUnits="userSpaceOnUse" x="0" y="62" width="676" height="368">
<path d="M83.274 429.253L603.277 414.353C627.477 413.653 647.377 395.153 649.777 371.053L674.878 123.053C677.678 94.953 655.878 70.453 627.677 70.053L48.8738 62.053C19.6736 61.653 -3.2265 87.153 0.373535 116.153L34.0737 387.053C37.1738 411.653 58.4739 429.953 83.274 429.253Z" fill="#EAF9F3"/>
</mask>
<g mask="url(#mask0)">
<path d="M252.275 496.553H667.777C676.077 496.553 682.777 489.853 682.777 481.553V245.853C682.777 237.553 676.077 230.853 667.777 230.853H252.275C243.975 230.853 237.275 237.553 237.275 245.853V481.453C237.275 489.753 243.975 496.553 252.275 496.553Z" stroke="#E0E0E0" stroke-width="1.8" stroke-miterlimit="10" stroke-linecap="round" stroke-linejoin="round"/>
<path d="M-53.4266 480.653H70.5741C78.8742 480.653 85.5742 473.953 85.5742 465.653V121.353C85.5742 113.053 78.8742 106.353 70.5741 106.353H-53.4266C-61.7267 106.353 -68.4267 113.053 -68.4267 121.353V465.653C-68.4267 473.953 -61.7267 480.653 -53.4266 480.653Z" stroke="#E0E0E0" stroke-width="1.8" stroke-miterlimit="10" stroke-linecap="round" stroke-linejoin="round"/>
<path d="M589.677 160.453H679.578V151.553H589.677C588.677 151.553 587.877 152.353 587.877 153.353V158.553C587.777 159.653 588.577 160.453 589.677 160.453Z" stroke="#E0E0E0" stroke-width="1.8" stroke-miterlimit="10" stroke-linecap="round" stroke-linejoin="round"/>
<path d="M605.877 151.653H626.177C628.377 151.653 630.177 150.053 630.477 147.853L632.077 133.453C632.377 130.953 630.377 128.653 627.777 128.653H604.277C601.677 128.653 599.777 130.853 599.977 133.453L601.577 147.853C601.877 149.953 603.677 151.653 605.877 151.653Z" stroke="#E0E0E0" stroke-width="1.8" stroke-miterlimit="10" stroke-linecap="round" stroke-linejoin="round"/>
<path d="M618.477 128.653C618.477 128.653 626.478 127.853 628.078 117.053C628.078 117.053 620.877 119.153 618.577 124.253C618.577 124.253 617.577 112.853 612.177 111.753C612.177 111.753 609.777 120.253 613.577 124.453C613.577 124.453 610.677 119.653 603.277 119.753C603.277 119.753 605.177 126.553 612.477 128.553" fill="#E0E0E0"/>
<path d="M255.375 280.553H345.575C347.875 280.553 349.776 278.653 349.776 276.353V248.953C349.776 246.653 347.875 244.753 345.575 244.753H255.375C253.075 244.753 251.175 246.653 251.175 248.953V276.353C251.175 278.653 253.075 280.553 255.375 280.553Z" stroke="#E0E0E0" stroke-width="1.8" stroke-miterlimit="10" stroke-linecap="round" stroke-linejoin="round"/>
<path d="M290.175 254.453H310.975C311.775 254.453 312.475 253.753 312.475 252.953C312.475 252.153 311.775 251.453 310.975 251.453H290.175C289.375 251.453 288.675 252.153 288.675 252.953C288.675 253.753 289.275 254.453 290.175 254.453Z" fill="#E0E0E0"/>
<path d="M255.375 326.353H345.575C347.875 326.353 349.776 324.453 349.776 322.153V294.753C349.776 292.453 347.875 290.553 345.575 290.553H255.375C253.075 290.553 251.175 292.453 251.175 294.753V322.153C251.175 324.453 253.075 326.353 255.375 326.353Z" stroke="#E0E0E0" stroke-width="1.8" stroke-miterlimit="10" stroke-linecap="round" stroke-linejoin="round"/>
<path d="M290.175 300.253H310.975C311.775 300.253 312.475 299.553 312.475 298.753C312.475 297.953 311.775 297.253 310.975 297.253H290.175C289.375 297.253 288.675 297.953 288.675 298.753C288.675 299.553 289.275 300.253 290.175 300.253Z" fill="#E0E0E0"/>
<path d="M608.177 280.553H698.378C700.678 280.553 702.578 278.653 702.578 276.353V248.953C702.578 246.653 700.678 244.753 698.378 244.753H608.177C605.877 244.753 603.977 246.653 603.977 248.953V276.353C603.877 278.653 605.777 280.553 608.177 280.553Z" stroke="#E0E0E0" stroke-width="1.8" stroke-miterlimit="10" stroke-linecap="round" stroke-linejoin="round"/>
<path d="M642.877 254.453H663.678C664.478 254.453 665.178 253.753 665.178 252.953C665.178 252.153 664.478 251.453 663.678 251.453H642.877C642.077 251.453 641.377 252.153 641.377 252.953C641.377 253.753 642.077 254.453 642.877 254.453Z" fill="#E0E0E0"/>
<path d="M608.177 326.353H698.378C700.678 326.353 702.578 324.453 702.578 322.153V294.753C702.578 292.453 700.678 290.553 698.378 290.553H608.177C605.877 290.553 603.977 292.453 603.977 294.753V322.153C603.877 324.453 605.777 326.353 608.177 326.353Z" stroke="#E0E0E0" stroke-width="1.8" stroke-miterlimit="10" stroke-linecap="round" stroke-linejoin="round"/>
<path d="M642.877 300.253H663.678C664.478 300.253 665.178 299.553 665.178 298.753C665.178 297.953 664.478 297.253 663.678 297.253H642.877C642.077 297.253 641.377 297.953 641.377 298.753C641.377 299.553 642.077 300.253 642.877 300.253Z" fill="#E0E0E0"/>
<path d="M-95.6271 211.253H64.1739C66.6739 211.253 68.7739 209.153 68.7739 206.653V126.953C68.7739 124.453 66.6739 122.353 64.1739 122.353H-95.7271C-98.2271 122.353 -100.327 124.453 -100.327 126.953V206.653C-100.227 209.153 -98.2271 211.253 -95.6271 211.253Z" stroke="#E0E0E0" stroke-width="1.8" stroke-miterlimit="10" stroke-linecap="round" stroke-linejoin="round"/>
<path d="M-95.6271 310.153H64.1739C66.6739 310.153 68.7739 308.053 68.7739 305.553V225.853C68.7739 223.353 66.6739 221.253 64.1739 221.253H-95.7271C-98.2271 221.253 -100.327 223.353 -100.327 225.853V305.553C-100.227 308.153 -98.2271 310.153 -95.6271 310.153Z" stroke="#E0E0E0" stroke-width="1.8" stroke-miterlimit="10" stroke-linecap="round" stroke-linejoin="round"/>
<path d="M28.2737 160.953H38.1737V211.253H28.2737V160.953Z" stroke="#E0E0E0" stroke-width="1.8" stroke-miterlimit="10" stroke-linecap="round" stroke-linejoin="round"/>
<path d="M17.9736 174.653H28.2737V211.253H17.9736V174.653Z" stroke="#E0E0E0" stroke-width="1.8" stroke-miterlimit="10" stroke-linecap="round" stroke-linejoin="round"/>
<path d="M34.3736 266.453L33.2736 251.553C33.1736 250.553 33.9737 249.753 34.9737 249.753H39.2737H43.5737C44.5737 249.753 45.2737 250.553 45.2737 251.553L44.1737 266.453C44.1737 266.453 53.1738 272.253 53.0738 277.053C52.9738 280.753 50.7738 298.453 49.7737 306.253C49.4737 308.453 47.6737 310.053 45.4737 310.053H39.2737H33.0736C30.8736 310.053 29.0736 308.453 28.7736 306.253C27.7736 298.453 25.5736 280.753 25.4736 277.053C25.3736 272.253 34.3736 266.453 34.3736 266.453Z" fill="#E0E0E0"/>
<path d="M658.677 404.553H14.4736" stroke="#E0E0E0" stroke-width="1.8" stroke-miterlimit="10" stroke-linecap="round" stroke-linejoin="round"/>
</g>
<path d="M199.486 165.82L249.451 162.749C253.192 162.526 255.872 159.121 255.202 155.436L236.165 48.7505C235.495 45.0659 232.48 42.3304 228.795 41.9396L178.607 37.0827C174.531 36.6919 171.181 40.2648 171.851 44.3402L190.833 158.897C191.503 163.084 195.243 166.099 199.486 165.82Z" fill="#F8AB5D"/>
<path d="M202.222 165.485L252.187 162.414C255.927 162.191 258.607 158.786 257.937 155.101L238.9 48.4156C238.23 44.731 235.216 41.9955 231.531 41.6047L181.342 36.7477C177.267 36.3569 173.917 39.9299 174.587 44.0052L193.568 158.562C194.238 162.749 197.979 165.708 202.222 165.485Z" fill="#F2994A"/>
<path d="M151.865 105.192L228.795 106.531C230.805 106.587 232.312 104.745 231.977 102.791L226.339 70.6905C226.004 68.8482 224.496 67.5083 222.654 67.3409L146.729 62.2606C144.161 62.0931 142.039 64.382 142.486 66.9501L148.069 101.842C148.236 103.74 149.911 105.192 151.865 105.192Z" fill="#F8AB5D"/>
<path d="M160.351 156.943L237.281 153.594C239.179 153.482 240.631 151.751 240.296 149.853L234.49 116.971C234.155 115.073 232.48 113.621 230.526 113.621L154.489 113.007C151.977 113.007 150.079 115.24 150.469 117.697L156.164 153.594C156.499 155.603 158.341 157.055 160.351 156.943Z" fill="#F8AB5D"/>
<path d="M240.073 54.8357L175.536 49.6996" stroke="#F8AB5D" stroke-width="1.8" stroke-miterlimit="10" stroke-linecap="round" stroke-linejoin="round"/>
<path d="M207.246 47.0757L212.773 47.5781C213.275 47.634 213.554 47.2432 213.499 46.6849C213.387 46.1266 212.94 45.68 212.438 45.6242L206.911 45.1218C206.408 45.0659 206.074 45.4567 206.185 46.015C206.297 46.5733 206.799 47.0199 207.246 47.0757Z" fill="#22272E"/>
<path d="M203.561 46.7407C204.064 46.7966 204.399 46.4058 204.287 45.8475C204.175 45.2892 203.729 44.8426 203.226 44.7868C202.724 44.731 202.389 45.1218 202.501 45.68C202.556 46.2383 203.059 46.7407 203.561 46.7407Z" fill="#22272E"/>
<path d="M141.37 50.537L162.64 52.1559C163.422 52.2118 164.036 51.5418 163.868 50.8161L161.747 37.92C161.635 37.1385 160.965 36.5244 160.184 36.4685L139.137 34.2355C138.244 34.1238 137.518 34.9054 137.629 35.7986L139.695 49.0854C139.918 49.867 140.588 50.4811 141.37 50.537Z" stroke="#FFDE30" stroke-width="1.8" stroke-miterlimit="10" stroke-linecap="round" stroke-linejoin="round"/>
<path d="M161.188 36.8035L151.921 42.777C151.419 43.112 150.749 43.112 150.246 42.777L138.187 34.5146" stroke="#FFDE30" stroke-width="1.8" stroke-miterlimit="10" stroke-linecap="round" stroke-linejoin="round"/>
<path d="M237.337 74.6542L254.811 75.6033L257.379 77.2781C257.993 77.6689 258.719 77.1665 258.607 76.4407L255.872 61.2557C255.648 60.0276 254.643 59.1343 253.415 59.0227L235.216 57.627C234.043 57.5153 233.038 58.5761 233.262 59.7484L235.606 73.0353C235.774 73.9843 236.5 74.5984 237.337 74.6542Z" fill="#EB5757"/>
<path d="M252.466 63.4888L237.728 62.4281" stroke="#22272E" stroke-width="1.8" stroke-miterlimit="10" stroke-linecap="round" stroke-linejoin="round"/>
<path d="M253.136 67.2292L238.398 66.2243" stroke="#22272E" stroke-width="1.8" stroke-miterlimit="10" stroke-linecap="round" stroke-linejoin="round"/>
<path d="M253.806 70.9138L246.102 70.4672" stroke="#22272E" stroke-width="1.8" stroke-miterlimit="10" stroke-linecap="round" stroke-linejoin="round"/>
<path d="M155.997 101.786L232.927 103.126C234.937 103.182 236.444 101.34 236.109 99.3856L230.47 67.2851C230.135 65.4428 228.628 64.1029 226.786 63.9354L150.861 58.8552C148.292 58.6877 146.171 60.9766 146.618 63.5447L152.2 98.4366C152.424 100.335 154.043 101.786 155.997 101.786Z" fill="#22272E"/>
<path d="M209.996 75.5014C210.387 77.7903 212.397 79.7442 214.462 79.8559C216.528 79.9675 217.868 78.1811 217.477 75.8922C217.086 73.6032 215.076 71.6493 213.011 71.5376C210.945 71.426 209.605 73.2125 209.996 75.5014Z" fill="#F2994A"/>
<path d="M209.996 75.5014C210.387 77.7903 212.397 79.7442 214.462 79.8559C216.528 79.9675 217.868 78.1811 217.477 75.8922C217.086 73.6032 215.076 71.6493 213.011 71.5376C210.945 71.426 209.605 73.2125 209.996 75.5014Z" fill="#F2994A"/>
<path d="M165.068 85.9687C165.459 88.2576 167.468 90.2115 169.534 90.3232C171.6 90.4348 172.939 88.6484 172.549 86.3594C172.158 84.0705 170.148 82.1166 168.082 82.0049C166.017 81.8933 164.677 83.6797 165.068 85.9687Z" fill="#F2994A"/>
<path d="M164.48 78.1521L206.551 79.9966C207.453 80.0581 208.161 79.2588 207.968 78.4595L207.517 75.7541C207.324 74.8319 206.551 74.1555 205.584 74.094L163.449 72.0036C162.547 71.9421 161.839 72.6799 162.032 73.5407L162.547 76.492C162.676 77.4143 163.514 78.1521 164.48 78.1521Z" fill="#1976D2"/>
<path d="M177.48 90.1521L219.551 91.9966C220.453 92.0581 221.161 91.2588 220.968 90.4595L220.517 87.7541C220.324 86.8319 219.551 86.1555 218.584 86.094L176.449 84.0036C175.547 83.9421 174.839 84.6799 175.032 85.5407L175.547 88.492C175.676 89.4143 176.514 90.1521 177.48 90.1521Z" fill="#979797"/>
<path d="M221.203 125.01C221.594 127.355 223.604 129.253 225.725 129.197C227.791 129.141 229.13 127.243 228.74 124.899C228.349 122.554 226.339 120.712 224.273 120.712C222.152 120.767 220.756 122.666 221.203 125.01Z" fill="#F2994A"/>
<path d="M222.822 140.084L231.978 139.804C233.15 139.749 234.043 138.688 233.876 137.516L233.652 136.343C232.927 132.1 229.354 128.751 225.613 128.807C221.873 128.862 219.361 132.379 220.142 136.678L220.366 138.074C220.533 139.246 221.594 140.084 222.822 140.084Z" fill="#F2994A"/>
<path d="M172.577 128.471L209.032 127.969C209.758 127.969 210.316 127.299 210.205 126.573L209.758 124.005C209.591 123.112 208.865 122.498 207.972 122.498L171.46 122.777C170.735 122.777 170.176 123.447 170.288 124.173L170.735 126.964C170.902 127.802 171.684 128.471 172.577 128.471Z" fill="#6DAFA7"/>
<path d="M209.367 134.724L208.809 136.511L207.078 136.901L208.586 138.353L208.642 140.363L210.149 139.414L211.935 140.251L211.377 138.241L212.326 136.79L210.54 136.455L209.367 134.724Z" fill="#F2994A"/>
<path d="M200.938 134.892L200.379 136.678L198.593 137.125L200.156 138.576L200.212 140.586L201.775 139.693L203.562 140.53L203.003 138.52L204.008 136.957L202.11 136.678L200.938 134.892Z" fill="#F2994A"/>
<path d="M192.34 135.115L191.782 136.901L189.94 137.348L191.503 138.8L191.614 140.865L193.178 139.916L195.02 140.753L194.406 138.744L195.466 137.181L193.568 136.901L192.34 135.115Z" fill="#F2994A"/>
<path d="M183.575 135.282L182.961 137.125L181.119 137.571L182.738 139.079L182.794 141.144L184.413 140.195L186.311 141.033L185.697 138.967L186.757 137.404L184.803 137.069L183.575 135.282Z" fill="#F2994A"/>
<path d="M174.643 135.506L173.973 137.348L172.13 137.795L173.749 139.302L173.805 141.423L175.424 140.418L177.378 141.312L176.764 139.19L177.881 137.683L175.871 137.348L174.643 135.506Z" fill="#F2994A"/>
<path d="M165.878 24.8565C166.715 23.9075 168.167 23.8517 169.06 24.6891C170.009 25.5265 170.065 26.978 169.227 27.8712C168.39 28.8203 166.938 28.8761 166.045 28.0387C165.096 27.2013 165.04 25.7498 165.878 24.8565Z" fill="#F2994A"/>
<path d="M168.892 19.6088L169.283 19.1622C170.623 17.7107 172.856 17.599 174.308 18.9389C175.759 20.2787 175.871 22.5118 174.531 23.9633L174.14 24.4099C173.694 24.9124 173.359 25.5265 173.191 26.1964C173.079 26.6988 172.912 27.3129 172.745 27.8712C172.41 29.0994 170.958 29.546 170.009 28.7086L167.497 26.4197L164.984 24.1308C164.035 23.2934 164.37 21.7302 165.543 21.3394C166.101 21.1161 166.659 20.9486 167.162 20.7812C167.832 20.4462 168.39 20.1112 168.892 19.6088Z" fill="#F2F2F2"/>
<path d="M167.439 150.94L244.369 152.279C246.379 152.335 247.886 150.493 247.551 148.539L241.912 116.439C241.577 114.596 240.07 113.256 238.228 113.089L162.303 108.009C159.735 107.841 157.613 110.13 158.06 112.698L163.642 147.59C163.866 149.488 165.485 150.94 167.439 150.94Z" fill="#22272E"/>
<path d="M221.438 124.655C221.829 126.944 223.839 128.898 225.904 129.009C227.97 129.121 229.31 127.335 228.919 125.046C228.528 122.757 226.518 120.803 224.453 120.691C222.387 120.579 221.047 122.366 221.438 124.655Z" fill="#F2994A"/>
<path d="M221.438 124.655C221.829 126.944 223.839 128.898 225.904 129.009C227.97 129.121 229.31 127.335 228.919 125.046C228.528 122.757 226.518 120.803 224.453 120.691C222.387 120.579 221.047 122.366 221.438 124.655Z" fill="#F2994A"/>
<path d="M176.51 135.122C176.901 137.411 178.91 139.365 180.976 139.477C183.042 139.588 184.382 137.802 183.991 135.513C183.6 133.224 181.59 131.27 179.525 131.158C177.459 131.047 176.119 132.833 176.51 135.122Z" fill="#F2994A"/>
<path d="M175.922 127.306L217.993 129.15C218.895 129.212 219.603 128.412 219.41 127.613L218.959 124.908C218.766 123.985 217.993 123.309 217.026 123.248L174.891 121.157C173.99 121.096 173.281 121.833 173.474 122.694L173.99 125.645C174.118 126.568 174.956 127.306 175.922 127.306Z" fill="#1976D2"/>
<path d="M188.922 139.306L230.993 141.15C231.895 141.212 232.603 140.412 232.41 139.613L231.959 136.908C231.766 135.985 230.993 135.309 230.026 135.248L187.891 133.157C186.99 133.096 186.281 133.833 186.474 134.694L186.99 137.645C187.118 138.568 187.956 139.306 188.922 139.306Z" fill="#979797"/>
<path d="M373.476 89.753L467.176 101.753C471.376 102.253 475.577 98.853 475.977 94.553L485.877 6.75299C486.377 2.65299 483.077 -0.447012 478.877 0.0529885L385.076 12.053C381.576 12.453 378.576 15.453 377.976 18.853L368.276 82.653C367.776 86.253 369.976 89.253 373.476 89.753Z" fill="#F8AB5D"/>
<path d="M369.676 89.753L463.376 101.753C467.576 102.253 471.777 98.853 472.277 94.553L482.277 6.75299C482.777 2.65299 479.477 -0.447012 475.277 0.0529885L381.476 12.053C377.976 12.453 374.976 15.453 374.376 18.853L364.576 82.653C363.976 86.253 366.176 89.353 369.676 89.753Z" fill="#F2994A"/>
<path d="M441.576 32.653C438.576 31.553 437.376 27.253 440.676 22.853C445.676 18.753 450.376 21.753 449.776 26.553C449.476 29.153 447.576 31.453 445.376 32.453C449.476 33.053 452.576 36.253 453.276 40.653L432.176 41.253C433.776 37.053 437.376 33.653 441.576 32.653Z" fill="#3A456B"/>
<path d="M422.276 26.253L387.876 28.753" stroke="#3A456B" stroke-width="1.8" stroke-miterlimit="10" stroke-linecap="round" stroke-linejoin="round"/>
<path d="M421.176 34.453L386.776 36.153" stroke="#3A456B" stroke-width="1.8" stroke-miterlimit="10" stroke-linecap="round" stroke-linejoin="round"/>
<path d="M436.776 69.953C433.776 68.453 432.576 63.853 435.976 59.653C440.976 55.853 445.676 59.553 445.076 64.453C444.776 67.153 442.876 69.353 440.576 70.153C444.676 71.153 447.776 74.853 448.476 79.553L427.376 77.953C428.976 73.653 432.676 70.453 436.776 69.953Z" fill="#3A456B"/>
<path d="M417.476 61.153L383.276 60.253" stroke="#3A456B" stroke-width="1.8" stroke-miterlimit="10" stroke-linecap="round" stroke-linejoin="round"/>
<path d="M416.376 69.653L382.076 67.853" stroke="#3A456B" stroke-width="1.8" stroke-miterlimit="10" stroke-linecap="round" stroke-linejoin="round"/>
<path d="M283.675 164.753L328.476 156.853C333.576 155.953 337.276 150.053 336.776 143.653L328.476 39.053C327.976 32.653 323.376 26.753 318.176 25.853L272.175 17.953C265.375 16.753 260.175 21.953 260.775 29.553L270.575 153.353C270.975 160.753 276.975 165.853 283.675 164.753Z" fill="#22272E"/>
<path d="M287.175 164.753L331.976 156.853C337.076 155.953 340.776 150.053 340.276 143.653L331.976 39.053C331.476 32.653 326.876 26.753 321.676 25.853L275.675 17.953C268.875 16.753 263.675 21.953 264.275 29.553L274.075 153.353C274.475 160.753 280.575 165.853 287.175 164.753Z" fill="#3A456B"/>
<path d="M300.675 33.653L309.275 34.853C310.075 34.953 310.775 34.253 310.675 33.253C310.575 32.253 309.875 31.353 308.975 31.253L300.375 29.953C299.475 29.853 298.875 30.553 298.875 31.553C298.975 32.653 299.775 33.553 300.675 33.653Z" fill="#F2994A"/>
<path d="M291.975 32.453L293.175 32.653C294.075 32.753 294.775 32.053 294.675 31.053C294.575 30.053 293.775 29.053 292.875 28.953L291.675 28.753C290.775 28.653 290.075 29.353 290.175 30.353C290.175 31.353 291.075 32.253 291.975 32.453Z" fill="#F2994A"/>
<path d="M315.475 144.753L330.375 142.653C331.975 142.453 333.176 140.653 332.976 138.653C332.776 136.653 331.375 135.153 329.775 135.353L314.875 137.153C313.175 137.353 311.875 139.253 311.975 141.353C312.175 143.553 313.775 145.053 315.475 144.753Z" fill="#F2994A"/>
<path d="M325.875 49.153L304.575 46.753" stroke="#F2994A" stroke-width="1.8" stroke-miterlimit="10" stroke-linecap="round" stroke-linejoin="round"/>
<path d="M329.476 93.953L319.176 94.053" stroke="#F2994A" stroke-width="1.8" stroke-miterlimit="10" stroke-linecap="round" stroke-linejoin="round"/>
<path d="M311.175 94.053L299.875 94.153" stroke="#F2994A" stroke-width="1.8" stroke-miterlimit="10" stroke-linecap="round" stroke-linejoin="round"/>
<path d="M290.975 94.253L278.475 94.353" stroke="#F2994A" stroke-width="1.8" stroke-miterlimit="10" stroke-linecap="round" stroke-linejoin="round"/>
<path d="M301.276 86.053L326.176 86.353C327.676 86.353 328.776 84.853 328.576 83.053L326.876 61.453C326.776 59.653 325.376 58.053 323.876 57.853L298.776 55.653C297.076 55.453 295.776 56.953 295.976 58.953L297.776 82.353C298.076 84.353 299.576 85.953 301.276 86.053Z" fill="#E0E0E0"/>
<path d="M268.575 85.553L285.275 85.753C287.075 85.753 288.475 84.153 288.275 82.153L286.375 58.153C286.175 56.153 284.575 54.353 282.775 54.153L265.975 52.653L268.575 85.553Z" fill="#F2994A"/>
<path d="M284.775 130.853L329.376 126.653C330.876 126.553 331.876 124.953 331.776 123.053L330.376 105.353C330.276 103.553 328.876 102.053 327.476 102.053L282.575 103.353C280.675 103.453 279.275 105.153 279.475 107.253L281.075 127.453C281.275 129.553 282.875 131.053 284.775 130.853Z" fill="#F4C2C9"/>
<path d="M416.076 95.653C416.076 97.753 414.376 99.353 412.376 99.353H336.776" stroke="#F2994A" stroke-width="1.8" stroke-miterlimit="10" stroke-linecap="round" stroke-linejoin="round"/>
<path d="M265.975 99.353H256.675" stroke="#F2994A" stroke-width="1.8" stroke-miterlimit="10" stroke-linecap="round" stroke-linejoin="round"/>
<path d="M502.277 376.853H649.578C651.978 376.853 653.978 374.853 653.978 372.453C653.978 370.053 651.978 368.053 649.578 368.053H502.277C499.877 368.053 497.877 370.053 497.877 372.453C497.877 374.853 499.877 376.853 502.277 376.853Z" fill="#22272E"/>
<path d="M630.777 376.853H641.578L642.578 389.653H632.077L630.777 376.853Z" fill="#6DAFA7"/>
<path d="M642.577 389.653L654.177 543.753C654.277 545.653 652.877 547.253 650.977 547.253C649.277 547.253 647.877 545.953 647.777 544.353L632.077 389.753H642.577V389.653Z" fill="#E0E0E0"/>
<path d="M521.077 376.853H510.177L509.277 389.653H519.777L521.077 376.853Z" fill="#6DAFA7"/>
<path d="M509.277 389.653L497.577 543.753C497.477 545.653 498.877 547.253 500.777 547.253C502.477 547.253 503.877 545.953 503.977 544.353L519.677 389.753H509.277V389.653Z" fill="#E0E0E0"/>
<path d="M345.875 376.853H493.176C495.576 376.853 497.576 374.853 497.576 372.453C497.576 370.053 495.576 368.053 493.176 368.053H345.875C343.475 368.053 341.475 370.053 341.475 372.453C341.475 374.853 343.375 376.853 345.875 376.853Z" fill="#22272E"/>
<path d="M474.277 376.853H485.177L486.177 389.653H475.577L474.277 376.853Z" fill="#6DAFA7"/>
<path d="M486.176 389.653L497.776 543.753C497.876 545.653 496.476 547.253 494.576 547.253C492.876 547.253 491.476 545.953 491.376 544.353L475.576 389.653H486.176Z" fill="#E0E0E0"/>
<path d="M364.676 376.853H353.776L352.776 389.653H363.376L364.676 376.853Z" fill="#6DAFA7"/>
<path d="M352.776 389.653L341.176 543.753C341.076 545.653 342.476 547.253 344.376 547.253C346.076 547.253 347.476 545.953 347.576 544.353L363.276 389.753H352.776V389.653Z" fill="#E0E0E0"/>
<path d="M106.074 493.753C106.074 493.753 104.574 508.353 104.174 512.253C103.774 515.653 103.074 519.853 102.574 522.553C102.274 524.353 102.774 526.253 104.074 527.553C104.074 527.553 104.674 532.853 104.074 537.853C104.074 537.953 104.074 537.953 104.074 538.053C103.674 541.353 105.974 544.353 109.274 544.853C114.174 545.653 122.174 546.753 131.375 547.053C137.575 547.253 142.475 546.953 146.275 546.453C150.175 545.953 152.175 541.453 149.775 538.353C145.575 532.853 139.875 525.053 136.675 520.353C131.375 512.353 132.075 501.553 133.275 493.653C134.475 485.853 110.474 487.753 106.074 493.753Z" fill="#F4C2C9"/>
<path d="M105.375 500.653C105.775 496.853 106.075 493.753 106.075 493.753C110.375 487.753 134.475 485.853 133.275 493.753C132.675 497.853 132.175 502.853 132.575 507.753C122.475 509.453 110.975 508.053 105.375 500.653Z" fill="#E26E85"/>
<path d="M104.074 538.053C104.674 532.953 104.074 527.753 104.074 527.753C102.774 526.353 102.274 524.553 102.574 522.753C103.074 520.053 103.774 515.853 104.174 512.453C104.174 512.253 104.174 512.153 104.274 511.953C107.374 514.853 110.674 517.553 111.974 521.653C112.674 523.853 114.974 525.253 117.274 524.653C124.675 522.753 132.075 522.353 139.475 524.753C142.575 529.153 146.675 534.553 149.775 538.753C152.175 541.853 150.175 546.453 146.275 546.853C142.575 547.253 137.575 547.553 131.375 547.453C122.174 547.153 114.174 546.053 109.274 545.253C105.974 544.753 103.674 541.753 104.074 538.453C104.074 538.153 104.074 538.053 104.074 538.053Z" fill="#22272E"/>
<path d="M51.274 495.753C51.274 495.753 48.174 507.553 48.174 511.653C48.174 514.553 48.874 521.653 49.374 525.853C49.574 527.553 49.274 529.153 48.474 530.653C48.274 530.953 48.174 531.253 48.174 531.653C48.074 532.353 48.074 535.353 48.074 538.153C48.074 541.353 45.674 544.053 42.474 544.353C38.974 544.653 33.3739 544.853 24.5739 544.553C17.6738 544.353 12.9738 543.953 9.87377 543.653C6.67375 543.353 4.77377 539.853 6.27377 536.953C10.4738 529.153 17.7738 515.153 19.2739 511.753C21.3739 506.853 23.5739 492.653 23.5739 492.653C23.5739 492.653 50.674 481.553 51.274 495.753Z" fill="#F4C2C9"/>
<path d="M21.1741 505.153C22.4741 499.353 23.5742 492.653 23.5742 492.653C23.5742 492.653 50.6743 481.553 51.1743 495.753C51.1743 495.753 50.4743 498.353 49.7743 501.553C40.2743 505.253 30.7742 505.953 21.1741 505.153Z" fill="#E26E85"/>
<path d="M6.27408 536.953C8.07409 533.653 10.3741 529.153 12.6741 524.853C13.0741 524.753 13.4741 524.753 13.8741 524.753C21.7742 522.553 30.6742 525.853 38.5743 525.853C41.6743 524.853 42.8743 516.253 48.2743 513.153C48.4743 516.553 48.9743 522.353 49.3743 525.953C49.5743 527.653 49.2744 529.253 48.4744 530.753C48.2744 531.053 48.1743 531.353 48.1743 531.753C48.0743 532.453 48.0743 535.453 48.0743 538.253C48.0743 541.453 45.6743 544.153 42.4743 544.453C38.9743 544.753 33.3742 544.953 24.5742 544.653C17.6741 544.453 12.9741 544.053 9.87408 543.753C6.57406 543.353 4.77407 539.853 6.27408 536.953Z" fill="#22272E"/>
<path d="M54.7743 233.653C54.7743 233.653 46.6743 246.153 44.4743 270.753C43.1743 284.953 44.9743 334.453 44.4743 339.153C44.0743 342.753 37.4742 387.453 31.3742 428.453C28.3741 448.053 22.9741 467.653 19.8741 480.353C18.2741 487.053 19.7741 491.553 21.1741 494.553C21.1741 494.553 23.1741 501.053 32.6741 501.553C43.7742 502.053 47.5743 500.653 52.7743 498.453C54.9743 497.453 59.5743 494.553 60.6743 488.553C62.6743 477.553 65.2744 457.253 71.4744 435.653C79.2745 408.653 89.1745 377.253 93.0745 352.853C93.5745 349.953 95.6745 340.353 97.8746 331.253C99.7746 323.553 101.675 316.253 102.675 313.453C106.275 303.453 105.875 303.053 107.075 300.653C108.975 296.853 113.375 301.553 117.775 283.353C118.475 280.653 118.975 276.453 119.375 271.953C120.375 260.453 120.675 246.353 120.675 246.353C120.675 246.353 70.1744 221.353 54.7743 233.653Z" fill="#22272E"/>
<path d="M145.775 245.453C145.775 245.453 152.775 289.753 152.675 344.953C152.675 356.253 149.775 382.653 146.375 410.253C142.775 439.753 142.175 463.753 140.175 487.353C139.875 491.453 137.875 494.253 136.475 495.753C135.475 496.753 134.575 497.853 133.575 498.853C131.975 500.653 128.275 503.353 120.675 503.153C109.374 502.853 104.074 497.353 101.974 494.653C100.274 492.453 98.1744 489.853 98.0744 482.953C97.7744 466.153 101.874 460.553 100.574 406.053C100.074 384.753 101.074 364.653 102.274 352.753C102.874 346.553 81.3743 276.153 79.4743 267.053C77.5743 257.953 129.975 236.353 145.775 245.453Z" fill="#22272E"/>
<path d="M65.6746 258.353C65.6746 258.353 63.7746 273.253 50.4745 280.753" stroke="#F2994A" stroke-width="1.8" stroke-miterlimit="10" stroke-linecap="round" stroke-linejoin="round"/>
<path d="M98.0746 331.253C99.9746 323.553 101.875 316.253 102.875 313.453C106.475 303.453 106.075 303.053 107.275 300.653C109.175 296.853 113.575 301.553 117.975 283.353" stroke="#F2994A" stroke-width="1.8" stroke-miterlimit="10" stroke-linecap="round" stroke-linejoin="round"/>
<path d="M137.175 372.153C130.106 372.153 124.375 365.885 124.375 358.153C124.375 350.421 130.106 344.153 137.175 344.153C144.244 344.153 149.975 350.421 149.975 358.153C149.975 365.885 144.244 372.153 137.175 372.153Z" stroke="#F2994A" stroke-width="1.8" stroke-miterlimit="10" stroke-linecap="round" stroke-linejoin="round"/>
<path d="M67.2744 372.153C59.5976 372.153 53.3743 365.885 53.3743 358.153C53.3743 350.421 59.5976 344.153 67.2744 344.153C74.9512 344.153 81.1744 350.421 81.1744 358.153C81.1744 365.885 74.9512 372.153 67.2744 372.153Z" stroke="#F2994A" stroke-width="1.8" stroke-miterlimit="10" stroke-linecap="round" stroke-linejoin="round"/>
<path d="M130.474 191.753C143.275 209.053 156.775 216.853 168.275 209.453C178.175 203.053 188.275 155.853 191.575 139.353C192.275 135.753 192.675 133.653 192.675 133.653L193.775 128.753C193.775 128.753 204.375 127.053 206.975 126.253C209.675 125.453 212.475 123.953 214.575 120.153C216.675 116.353 222.375 109.953 219.675 109.053C216.975 108.153 209.775 116.953 209.775 116.953C209.775 116.953 203.475 117.153 193.875 115.953C184.275 114.753 179.375 114.753 176.375 118.753C174.675 120.953 173.675 124.853 173.675 124.853L171.475 130.753L156.475 170.653C156.475 170.653 155.775 169.353 154.675 167.253C143.974 173.353 136.974 182.353 130.474 191.753Z" fill="#F4C2C9"/>
<path d="M135.775 198.353C133.975 196.353 132.175 194.153 130.475 191.753C136.975 182.453 144.075 173.353 154.775 167.253C155.175 168.053 155.475 168.653 155.775 169.153C146.975 177.453 140.575 187.453 135.775 198.353Z" fill="#E26E85"/>
<path d="M156.475 166.753C145.775 172.953 136.875 182.453 130.375 191.753C128.875 189.653 127.275 187.453 125.775 185.153C134.375 176.553 143.975 168.853 153.575 162.253C154.775 163.853 155.875 165.453 156.475 166.753Z" fill="white"/>
<path d="M132.075 131.153C132.075 131.153 138.075 135.753 144.675 148.153C147.575 153.553 151.075 158.353 153.675 162.153C144.075 168.853 134.475 176.453 125.875 185.053C124.075 182.253 122.275 179.253 120.475 176.153C104.875 148.353 122.575 126.053 132.075 131.153Z" fill="#6DAFA7"/>
<path d="M156.475 170.653C156.475 170.653 154.375 176.453 152.575 181.653" stroke="#E26E85" stroke-width="1.8" stroke-miterlimit="10" stroke-linecap="round" stroke-linejoin="round"/>
<path d="M215.475 118.653C215.475 118.653 220.375 114.953 222.975 113.253C225.575 111.553 221.275 109.653 217.375 111.253C213.475 112.853 206.675 115.153 206.675 115.153C206.675 115.153 210.875 111.153 211.975 109.753C213.075 108.353 210.275 107.153 207.575 108.853C204.775 110.653 200.275 114.753 197.075 116.153C193.875 117.553 193.975 121.153 195.575 121.753C197.075 122.353 209.375 121.053 215.475 118.653Z" fill="#F4C2C9"/>
<path d="M179.475 116.253C179.475 116.253 184.875 113.553 187.075 112.653C189.275 111.753 192.775 110.653 193.775 110.553C194.675 110.453 196.375 112.153 193.075 114.853C189.775 117.553 187.875 119.153 187.875 119.153C187.875 119.153 177.875 119.553 179.475 116.253Z" fill="#F4C2C9"/>
<path d="M132.075 130.753C132.075 130.753 126.274 122.853 97.6743 120.853C69.0741 118.853 52.174 125.153 46.174 135.053C40.174 144.953 56.4741 200.453 57.9741 208.153C59.4741 215.853 51.874 235.153 51.874 239.253C51.874 243.353 84.6742 255.453 105.374 255.053C122.974 254.653 137.875 249.453 144.875 246.153C146.675 245.353 147.675 243.353 147.275 241.453C146.075 235.453 143.475 221.753 140.975 209.853C137.675 193.953 146.775 154.453 132.075 130.753Z" fill="#F2994A"/>
<path d="M77.874 127.153C77.974 134.153 89.9741 146.453 100.174 147.453C110.374 149.353 115.774 139.853 115.774 131.953C115.774 123.953 106.874 116.553 96.4742 115.553C86.6741 114.453 77.774 120.053 77.874 127.153Z" fill="white"/>
<path d="M109.375 111.953L110.875 124.753C110.875 124.753 114.475 136.153 103.174 137.553C91.8744 138.953 84.1744 127.953 83.7744 124.153L85.2744 95.453C85.1744 95.553 105.574 97.453 109.375 111.953Z" fill="#F4C2C9"/>
<path d="M95.4743 118.453C100.074 119.853 105.274 119.653 110.274 119.553L110.774 124.053C104.974 124.553 99.2744 122.353 95.4743 118.453Z" fill="#E26E85"/>
<path d="M110.474 229.453H163.175C165.575 229.453 167.575 227.753 167.975 225.353L173.675 189.053C174.075 186.753 172.275 184.653 169.875 184.653H117.174C114.774 184.653 112.774 186.353 112.374 188.753L106.674 225.053C106.274 227.353 108.074 229.453 110.474 229.453Z" fill="#22272E"/>
<path d="M143.475 192.853C142.591 192.853 141.875 192.137 141.875 191.253C141.875 190.369 142.591 189.653 143.475 189.653C144.358 189.653 145.075 190.369 145.075 191.253C145.075 192.137 144.358 192.853 143.475 192.853Z" fill="#F4C2C9"/>
<path d="M98.7743 207.153C98.7743 207.153 102.774 202.653 105.174 201.153C107.574 199.653 110.874 198.553 110.874 198.553L110.974 207.053C110.974 207.053 101.274 208.653 98.7743 207.153Z" fill="#F4C2C9"/>
<path d="M93.2744 206.553C96.6744 206.953 98.7744 207.153 98.7744 207.153C98.7744 207.153 101.074 205.353 103.474 204.053C105.874 202.753 110.474 203.353 114.675 203.153C118.875 202.953 123.475 202.753 128.175 202.353C131.775 202.053 135.075 201.653 135.475 203.153C136.075 205.553 130.675 206.153 130.675 206.153C130.675 206.153 135.775 206.153 136.975 206.753C139.475 207.953 137.175 209.953 137.175 209.953C140.775 211.653 137.475 214.253 137.475 214.253C137.475 214.253 139.375 215.053 137.975 217.253C135.075 221.953 120.375 226.253 117.075 226.253C111.675 226.253 102.274 226.253 102.274 226.253C102.274 226.253 98.4744 226.553 92.0744 227.153C90.2744 220.453 90.3744 213.153 93.2744 206.553Z" fill="#F4C2C9"/>
<path d="M85.5744 205.753C88.4744 206.053 91.0744 206.353 93.1744 206.553C90.3744 213.153 90.1744 220.453 92.0745 227.153C89.9744 227.353 87.5745 227.553 84.9744 227.753C82.4744 220.553 81.8744 212.953 85.5744 205.753Z" fill="#22272E"/>
<path d="M59.7741 184.853C55.774 193.953 51.974 202.053 51.974 202.053C55.5741 202.553 73.0741 204.453 85.6742 205.753C81.9742 213.053 82.5742 220.553 85.0742 227.853C77.9742 228.453 69.1741 229.253 59.4741 230.153C35.2739 232.353 19.7738 231.053 16.3738 218.053C13.4738 206.953 17.0738 196.453 28.7739 169.153C39.374 173.753 50.174 178.353 59.7741 184.853Z" fill="#F4C2C9"/>
<path d="M28.6742 169.153C39.3743 173.753 50.1744 178.353 59.7744 184.853C59.4744 185.453 59.1744 186.153 58.8744 186.753C49.5743 178.753 37.7743 176.853 25.8742 175.653C26.7742 173.553 27.6742 171.453 28.6742 169.153Z" fill="#E26E85"/>
<path d="M27.874 161.453C41.9741 128.953 51.2742 129.453 51.2742 129.453C67.8743 123.353 74.4743 145.953 68.3742 164.453C67.1742 168.253 64.3742 174.153 61.6742 180.253C52.0741 172.453 38.6741 167.453 26.774 163.853C27.274 163.053 27.574 162.253 27.874 161.453Z" fill="#6DAFA7"/>
<path d="M61.7742 180.253C61.0742 181.753 60.3742 183.353 59.7742 184.853C50.2741 178.353 35.674 172.953 24.974 168.353C25.574 166.853 26.274 165.353 26.974 163.753C38.774 167.453 52.2741 172.353 61.7742 180.253Z" fill="white"/>
<path d="M130.574 206.153C130.574 206.153 123.974 207.053 121.974 207.453C119.974 207.853 115.674 208.053 115.674 208.053" stroke="#E26E85" stroke-width="1.8" stroke-miterlimit="10" stroke-linecap="round" stroke-linejoin="round"/>
<path d="M137.175 209.953C137.175 209.953 130.075 211.653 127.375 212.253C124.674 212.853 116.474 213.753 116.474 213.753" stroke="#E26E85" stroke-width="1.8" stroke-miterlimit="10" stroke-linecap="round" stroke-linejoin="round"/>
<path d="M137.475 214.253C137.475 214.253 133.475 216.453 129.475 217.753C125.375 219.153 118.074 220.153 118.074 220.153" stroke="#E26E85" stroke-width="1.8" stroke-miterlimit="10" stroke-linecap="round" stroke-linejoin="round"/>
<path d="M51.9742 201.953C51.9742 201.953 39.9741 200.053 37.0741 200.253" stroke="#E26E85" stroke-width="1.8" stroke-miterlimit="10" stroke-linecap="round" stroke-linejoin="round"/>
<path d="M87.3743 219.053C84.5024 219.053 82.1743 216.725 82.1743 213.853C82.1743 210.981 84.5024 208.653 87.3743 208.653C90.2462 208.653 92.5743 210.981 92.5743 213.853C92.5743 216.725 90.2462 219.053 87.3743 219.053Z" fill="white"/>
<path d="M122.475 70.853C122.475 70.853 127.275 75.053 125.775 82.653C124.275 90.253 113.575 97.553 113.575 97.553C113.575 97.553 108.875 63.953 122.475 70.853Z" fill="#22272E"/>
<path d="M121.474 73.953C121.474 73.953 122.774 93.153 123.074 100.753C123.374 108.353 120.374 118.653 109.274 120.453C98.1743 122.253 86.8742 116.953 83.1742 102.553C79.4742 88.153 79.8742 71.653 92.4743 69.453C105.074 67.253 121.474 73.953 121.474 73.953Z" fill="#F4C2C9"/>
<path d="M86.8742 96.753C86.8742 96.753 86.4742 93.153 89.2742 89.553C92.0742 85.853 91.6742 81.753 91.6742 81.753C91.6742 81.753 93.7743 70.953 109.474 81.253C116.074 85.553 131.574 79.953 128.774 67.753C124.474 48.953 100.874 56.953 94.0742 58.153C87.2742 59.353 80.5741 59.353 79.3741 66.353C79.3741 66.353 68.7741 70.853 71.8741 83.253C75.9741 99.453 84.1742 116.253 84.1742 116.253C84.1742 116.253 85.0742 107.053 86.8742 96.753Z" fill="#22272E"/>
<path d="M88.4741 96.653C88.4741 96.653 86.1741 88.953 80.074 90.653C73.974 92.353 76.974 104.253 85.3741 105.753" fill="#F4C2C9"/>
<path d="M119.275 94.353C119.975 94.353 120.575 93.753 120.575 93.053V91.853C120.575 91.153 119.975 90.553 119.275 90.553C118.575 90.553 117.975 91.153 117.975 91.853V93.053C117.875 93.753 118.475 94.353 119.275 94.353Z" fill="#22272E"/>
<path d="M104.075 94.353C104.775 94.353 105.375 93.753 105.375 93.053V91.853C105.375 91.153 104.775 90.553 104.075 90.553C103.375 90.553 102.775 91.153 102.775 91.853V93.053C102.775 93.753 103.375 94.353 104.075 94.353Z" fill="#22272E"/>
<path d="M121.775 87.053C121.675 85.953 120.575 83.653 118.475 83.753C115.575 83.953 114.475 85.853 114.775 87.053C115.075 88.053 116.975 87.353 118.475 87.253C120.175 87.053 121.875 87.953 121.775 87.053Z" fill="#22272E"/>
<path d="M113.174 92.553C112.674 93.653 112.774 94.953 113.074 96.053C113.174 96.653 113.474 97.153 113.674 97.753C113.774 98.053 113.974 98.253 114.074 98.553C114.174 98.753 114.475 99.153 114.475 99.253C114.875 99.953 114.874 100.653 114.374 101.453C114.074 101.853 113.774 102.253 113.374 102.553C112.974 102.853 112.574 103.153 111.974 103.253C112.474 103.553 113.174 103.453 113.774 103.353C114.374 103.153 114.975 102.853 115.475 102.353C115.975 101.853 116.375 101.253 116.475 100.553C116.675 99.753 116.474 98.953 116.074 98.353C115.874 97.953 115.774 97.853 115.574 97.653C115.374 97.453 115.274 97.253 115.174 96.953C114.874 96.453 114.674 96.053 114.374 95.553C113.974 94.653 113.474 93.653 113.174 92.553Z" fill="#22272E"/>
<path d="M98.0744 86.853C98.1744 85.453 99.3744 83.553 101.574 83.753C104.674 83.953 106.074 85.653 105.674 87.153C105.374 88.353 103.174 87.353 101.574 87.153C99.7744 86.853 98.0744 88.053 98.0744 86.853Z" fill="#22272E"/>
<path d="M110.375 109.453C110.575 108.753 110.675 108.053 110.775 107.453C110.875 106.453 110.075 105.653 109.175 105.653C108.075 105.653 106.675 105.353 104.875 104.753C101.075 103.353 100.575 105.953 101.675 108.553C104.475 107.953 107.575 108.853 110.375 109.453Z" fill="#22272E"/>
<path d="M101.574 108.653C102.574 110.853 104.774 113.153 107.374 112.653C109.075 112.353 109.975 110.953 110.375 109.553C107.574 108.853 104.474 107.953 101.574 108.653Z" fill="#E26E85"/>
<path d="M79.8745 95.253C80.7745 95.153 81.5745 95.253 81.8745 95.553C81.9745 95.753 82.0745 95.953 82.1745 96.153C82.2745 96.353 82.2745 96.853 82.3745 97.153C82.4745 97.853 82.5745 98.653 82.8745 99.653C83.0745 100.153 83.4745 100.653 83.9745 100.853C84.4745 101.053 84.9745 101.053 85.3745 100.853C84.9745 100.553 84.6745 100.353 84.4745 100.053C84.2745 99.753 84.2745 99.553 84.2745 99.153C84.2745 98.453 84.2745 97.653 84.1745 96.753C84.0745 96.253 83.9745 95.853 83.7745 95.353C83.5745 94.853 83.1745 94.353 82.5745 94.153C81.9745 93.953 81.3745 94.053 80.9745 94.153C80.4745 94.653 80.0745 94.953 79.8745 95.253Z" fill="#22272E"/>
<path d="M505.476 135.953H547.177L551.477 138.753C552.877 139.653 554.677 138.653 554.677 137.053V107.553C554.677 104.553 552.277 102.153 549.277 102.153H505.576C502.576 102.153 500.176 104.553 500.176 107.553V130.553C500.076 133.553 502.476 135.953 505.476 135.953Z" fill="#F4C2C9"/>
<path d="M541.177 111.653H513.377" stroke="#22272E" stroke-width="1.8" stroke-miterlimit="10" stroke-linecap="round" stroke-linejoin="round"/>
<path d="M541.177 119.253H513.377" stroke="#22272E" stroke-width="1.8" stroke-miterlimit="10" stroke-linecap="round" stroke-linejoin="round"/>
<path d="M541.177 126.853H525.177" stroke="#22272E" stroke-width="1.8" stroke-miterlimit="10" stroke-linecap="round" stroke-linejoin="round"/>
<path d="M403.476 306.693C403.476 306.693 386.576 314.893 365.976 336.393C343.875 359.593 338.475 373.493 341.475 386.693C343.875 397.293 344.075 391.293 365.976 392.793C387.876 394.293 408.876 393.893 416.776 393.193C424.676 392.493 467.176 381.393 480.876 368.193C494.576 354.993 490.676 331.593 479.876 308.593C469.176 285.493 406.676 300.893 403.476 306.693Z" fill="#F2994A"/>
<path d="M379.276 377.293C379.276 377.293 374.376 365.493 363.776 363.993C353.276 362.493 338.376 369.393 342.176 392.593C346.676 420.093 391.476 501.893 392.176 505.193C392.876 508.493 387.076 516.993 381.676 521.293C376.276 525.593 354.776 534.693 358.776 544.093C358.776 544.093 382.776 547.493 396.576 545.793C410.376 544.093 413.276 537.993 415.476 538.993C417.676 539.993 420.276 537.093 420.776 535.893C421.276 534.693 416.176 508.493 416.176 508.493C416.176 508.493 396.276 435.793 391.976 418.393C387.576 400.993 379.276 377.293 379.276 377.293Z" fill="#F4C2C9"/>
<path d="M358.776 544.193C358.776 544.193 382.776 547.593 396.576 545.893C410.376 544.193 413.276 538.093 415.476 539.093C417.676 540.093 420.276 537.193 420.776 535.993C420.976 535.493 420.376 531.493 419.476 526.693L393.076 529.293C393.076 529.293 388.976 529.893 383.576 529.293C379.776 528.893 375.476 527.593 372.276 527.093C364.676 531.793 356.076 537.893 358.776 544.193Z" fill="#6DAFA7"/>
<path d="M399.776 331.893C399.776 331.893 385.776 340.793 374.076 354.193" stroke="#F8AB5D" stroke-width="1.8" stroke-miterlimit="10" stroke-linecap="round" stroke-linejoin="round"/>
<path d="M413.076 368.193C413.076 368.193 406.176 358.893 394.776 360.393C383.376 361.893 374.476 371.793 377.476 390.593C380.476 409.393 399.276 494.493 400.776 501.393C402.276 508.293 400.176 514.793 395.076 524.193C389.876 533.593 380.776 540.493 381.976 547.693C381.976 547.693 386.876 549.393 400.076 549.393C413.276 549.393 425.276 548.893 426.276 548.193C427.276 547.493 429.976 542.493 431.976 541.793C433.976 541.093 435.976 541.593 436.276 539.893C436.676 538.293 429.876 511.393 429.076 504.493C424.276 461.293 432.476 387.093 413.076 368.193Z" fill="#F4C2C9"/>
<path d="M381.876 547.593C381.876 547.593 386.876 549.293 399.976 549.293C413.076 549.293 425.176 548.793 426.176 548.093C427.176 547.393 429.876 542.393 431.876 541.693C433.876 540.993 435.876 541.393 436.176 539.793C436.376 538.893 434.176 529.493 432.176 520.293C430.076 520.993 425.176 522.793 424.276 524.193C423.176 525.993 421.476 531.793 417.976 533.693C414.676 535.393 397.976 527.793 389.276 532.293C385.076 537.893 381.076 542.693 381.876 547.593Z" fill="#6DAFA7"/>
<path d="M378.076 374.893C376.876 379.193 376.576 384.393 377.476 390.493C380.476 409.293 399.276 494.393 400.776 501.293C402.276 508.193 400.176 514.693 395.076 524.093C394.176 525.793 393.076 527.493 391.876 528.993" stroke="#E26E85" stroke-width="1.8" stroke-miterlimit="10" stroke-linecap="round" stroke-linejoin="round"/>
<path d="M410.176 207.393C410.176 207.393 404.176 205.493 389.776 228.593C375.476 251.693 375.876 250.393 375.876 250.393C375.876 250.393 336.876 239.893 333.176 239.993C329.476 240.093 323.376 251.893 331.176 258.593C337.176 263.793 371.576 280.493 382.376 280.593C389.176 280.593 394.976 277.293 411.776 252.393C430.176 225.393 415.676 204.893 410.176 207.393Z" fill="#E0E0E0"/>
<path d="M375.876 250.493C375.876 250.493 385.076 252.293 388.076 259.493" stroke="#6DAFA7" stroke-width="1.8" stroke-miterlimit="10" stroke-linecap="round" stroke-linejoin="round"/>
<path d="M317.575 232.693C317.575 232.693 317.275 230.293 317.575 226.093C317.875 221.893 319.375 216.493 319.375 216.493C319.375 216.493 321.575 215.393 322.075 218.693C322.575 221.993 323.875 229.393 323.875 229.393C323.875 229.393 320.675 235.993 317.575 232.693Z" fill="#F4C2C9"/>
<path d="M327.141 257H352.407C354.006 257 355.222 255.555 354.966 253.914L348.825 212.48C348.505 210.445 346.842 209 344.859 209H319.593C317.994 209 316.778 210.445 317.034 212.086L323.175 253.52C323.431 255.555 325.158 257 327.141 257Z" fill="#22272E"/>
<path d="M320.075 226.793C320.075 226.793 334.275 225.893 336.675 226.193C338.975 226.393 339.776 228.693 337.275 229.693C335.375 230.493 328.675 231.593 328.675 231.593C328.675 231.593 342.276 233.993 343.776 235.293C345.276 236.693 344.476 238.193 343.176 238.593C343.176 238.593 346.376 240.293 344.076 242.393C341.776 244.493 333.375 245.293 333.375 245.293C333.375 245.293 341.076 244.193 341.276 246.193C341.376 248.093 331.075 250.393 326.975 249.893C320.875 249.093 321.475 247.293 320.875 245.593C320.275 243.893 318.475 235.593 317.675 232.693C317.575 232.693 317.375 228.393 320.075 226.793Z" fill="#F4C2C9"/>
<path d="M329.375 231.693C329.375 231.693 321.375 233.393 320.575 233.293" stroke="#E26E85" stroke-width="1.8" stroke-miterlimit="10" stroke-linecap="round" stroke-linejoin="round"/>
<path d="M343.176 238.693C343.176 238.693 341.676 239.193 337.676 239.293C333.676 239.393 321.876 238.093 321.876 238.093" stroke="#E26E85" stroke-width="1.8" stroke-miterlimit="10" stroke-linecap="round" stroke-linejoin="round"/>
<path d="M335.276 245.093C335.276 245.093 327.175 245.893 323.775 245.093" stroke="#E26E85" stroke-width="1.8" stroke-miterlimit="10" stroke-linecap="round" stroke-linejoin="round"/>
<path d="M409.876 229.093C409.876 229.093 399.976 216.593 405.776 195.893C408.976 184.593 416.576 178.193 413.876 165.093C410.976 150.393 405.776 148.693 421.176 143.793C421.176 143.793 443.876 137.693 457.876 147.993C466.876 154.593 467.276 160.793 466.976 173.493C466.776 182.993 477.476 173.693 480.776 191.393C482.576 200.993 482.876 199.193 491.676 207.093C504.477 218.593 491.076 257.893 459.176 262.393C427.276 266.893 411.776 244.693 409.876 229.093Z" fill="#22272E"/>
<path d="M484.776 221.393C484.576 214.893 480.176 209.293 474.076 207.393C467.976 205.493 458.876 203.293 447.876 202.393C427.276 200.693 412.576 204.393 410.776 206.393C408.976 208.393 408.376 218.693 406.876 222.993C405.376 227.293 394.476 237.093 396.676 248.793C398.876 260.493 402.976 266.393 404.276 271.593C405.576 276.793 406.676 283.493 406.476 287.593C406.276 291.693 400.576 307.093 399.976 310.393C399.376 313.693 410.776 323.893 434.276 324.893C453.676 325.693 473.576 319.293 480.776 314.493C482.576 313.293 483.376 310.993 482.676 308.893C480.776 302.893 476.576 288.793 475.976 283.993C475.276 277.693 481.376 256.193 483.376 241.093C484.576 233.293 484.976 226.593 484.776 221.393Z" fill="#6DAFA7"/>
<path d="M459.376 200.793C459.376 200.793 461.176 212.493 453.076 212.993C444.976 213.493 448.476 215.493 446.676 219.593C444.776 223.793 439.376 222.193 438.676 221.593C434.476 218.293 432.776 224.393 428.676 223.693C424.576 222.993 426.176 219.593 424.076 218.793C421.976 217.993 417.676 218.793 419.276 213.393C420.976 207.493 414.576 212.193 417.876 205.093C421.676 196.793 440.776 197.693 452.276 200.193C463.776 202.693 459.176 198.793 459.376 200.793Z" fill="white"/>
<path d="M425.976 194.493C425.976 194.493 425.676 203.993 425.276 206.193C424.976 208.393 421.576 218.393 432.276 217.893C438.276 217.593 442.776 214.193 445.576 211.293C447.776 208.993 448.876 205.893 448.776 202.693L447.876 186.093C447.876 185.993 428.276 183.193 425.976 194.493Z" fill="#F4C2C9"/>
<path d="M441.276 191.393C440.576 200.293 433.376 204.393 425.476 205.093C425.676 203.193 425.776 199.893 425.876 197.393C430.876 200.893 437.676 196.193 441.276 191.393Z" fill="#E26E85"/>
<path d="M416.976 156.393C430.876 153.493 446.176 156.693 459.376 162.493C459.376 162.593 459.376 162.693 459.376 162.793C458.776 185.693 451.176 198.193 438.176 200.493C425.176 202.793 415.576 194.693 416.776 180.193C417.476 170.193 417.176 161.093 416.976 156.393Z" fill="#F4C2C9"/>
<path d="M459.376 162.393C446.176 156.593 430.876 153.393 416.976 156.293C416.876 154.093 416.776 152.893 416.776 152.893" fill="#F4C2C9"/>
<path d="M419.776 162.393C425.076 159.893 426.076 168.493 437.876 164.493C440.976 163.393 444.376 159.893 445.176 167.493C445.576 171.093 444.076 174.593 448.876 181.393C452.776 186.993 438.376 204.093 457.776 210.793C471.076 215.393 478.076 205.593 485.576 217.193C490.576 224.893 481.076 201.293 463.276 190.193C454.876 184.993 461.776 168.693 462.276 164.893C462.676 161.093 460.576 153.393 447.876 150.393C435.176 147.393 421.276 136.593 412.376 145.393C406.176 151.493 407.376 168.093 419.776 162.393Z" fill="#22272E"/>
<path d="M468.876 213.993C474.076 209.093 482.576 210.893 485.676 217.293C489.076 224.493 494.776 236.693 500.376 249.993C509.276 271.293 512.976 291.793 500.376 298.493C487.776 305.193 470.676 291.793 461.776 281.193C452.876 270.593 440.576 254.193 440.576 254.193C440.576 254.193 442.476 241.293 451.576 240.593L468.676 253.493C468.676 253.493 464.676 244.293 463.276 239.593C461.776 234.893 462.076 220.493 468.676 214.093C468.776 214.093 468.876 213.993 468.876 213.993Z" fill="#E0E0E0"/>
<path d="M468.676 253.493C468.676 253.493 492.677 268.593 496.877 276.493" stroke="#6DAFA7" stroke-width="1.8" stroke-miterlimit="10" stroke-linecap="round" stroke-linejoin="round"/>
<path d="M451.676 240.593C451.676 240.593 435.676 230.093 434.376 229.593C433.076 228.993 423.276 231.293 422.276 231.793C421.276 232.293 419.276 237.093 419.276 237.093C419.276 237.093 411.276 240.893 411.076 241.593C410.876 242.293 412.476 244.393 412.976 244.693C413.476 244.893 415.676 245.093 416.076 245.193C416.476 245.293 420.576 251.893 422.576 253.493C424.576 255.093 434.076 253.693 435.476 253.693C436.976 253.693 443.376 255.693 443.376 255.693C443.376 255.693 447.576 254.793 450.676 249.693C453.776 244.593 451.676 240.593 451.676 240.593Z" fill="#F4C2C9"/>
<path d="M419.776 237.893C419.776 237.893 412.476 237.393 412.076 236.593C411.576 235.793 411.876 234.493 412.976 233.593C414.076 232.693 425.676 232.193 428.176 231.993C430.676 231.793 433.976 232.393 436.176 234.193C438.276 236.193 426.976 243.193 419.776 237.893Z" fill="#F4C2C9"/>
<path d="M415.976 245.193C415.976 245.193 421.476 244.393 422.176 244.393C422.876 244.393 425.176 244.393 425.176 244.393" stroke="#E26E85" stroke-width="1.8" stroke-miterlimit="10" stroke-linecap="round" stroke-linejoin="round"/>
<path d="M419.176 249.593C419.176 249.593 422.976 249.893 424.376 250.093C425.776 250.193 426.676 250.093 426.676 250.093" stroke="#E26E85" stroke-width="1.8" stroke-miterlimit="10" stroke-linecap="round" stroke-linejoin="round"/>
<path d="M430.076 189.093C432.176 188.993 434.676 188.393 436.676 186.193" stroke="#22272E" stroke-width="1.8" stroke-miterlimit="10" stroke-linecap="round" stroke-linejoin="round"/>
<path d="M421.276 178.793C420.376 178.793 419.576 177.993 419.576 177.093V176.093C419.576 175.193 420.376 174.393 421.276 174.393C422.176 174.393 422.976 175.193 422.976 176.093V177.093C422.976 177.993 422.276 178.793 421.276 178.793Z" fill="#22272E"/>
<path d="M436.876 178.793C435.976 178.793 435.176 177.993 435.176 177.093V176.093C435.176 175.193 435.976 174.393 436.876 174.393C437.776 174.393 438.576 175.193 438.576 176.093V177.093C438.576 177.993 437.776 178.793 436.876 178.793Z" fill="#22272E"/>
<path d="M426.976 185.493C425.976 185.193 425.376 184.593 424.876 183.993C424.376 183.393 424.076 182.693 424.076 182.093C424.076 181.893 424.076 181.793 424.176 181.593L424.376 180.893C424.476 180.393 424.576 179.993 424.676 179.393C424.776 178.393 424.776 177.493 424.576 176.493C423.976 177.293 423.676 178.293 423.276 179.093L422.776 180.293L422.476 180.993C422.376 181.293 422.276 181.593 422.276 181.893C422.276 182.493 422.476 183.193 422.776 183.693C423.076 184.193 423.476 184.593 423.976 184.893C424.476 185.193 424.976 185.393 425.476 185.493C425.976 185.793 426.476 185.793 426.976 185.493Z" fill="#22272E"/>
<path d="M441.676 168.393C441.576 167.393 440.376 166.793 438.476 166.293C434.476 165.793 432.876 167.393 433.476 169.393C433.976 170.993 436.776 169.493 438.576 169.493C440.076 169.393 441.676 169.293 441.676 168.393Z" fill="#22272E"/>
<path d="M417.476 168.293C417.476 167.293 418.476 166.793 419.876 166.193C422.876 165.593 424.176 167.193 423.776 168.993C423.376 170.493 421.276 169.193 419.876 169.193C418.676 169.293 417.376 169.193 417.476 168.293Z" fill="#22272E"/>
<path d="M562.077 177.253C562.077 177.253 562.377 184.153 561.177 190.253C560.777 192.153 561.877 194.153 563.677 194.853C564.877 195.253 566.277 195.453 567.577 194.653C570.777 192.653 565.777 171.353 562.077 177.253Z" fill="#22272E"/>
<path d="M607.177 185.153C607.177 185.153 607.077 192.153 606.477 196.653C606.177 199.053 603.777 200.753 601.377 200.153C601.077 200.053 600.877 199.953 600.677 199.853C598.877 198.653 600.177 182.253 600.177 182.253C600.177 182.253 606.777 182.353 607.177 185.153Z" fill="#22272E"/>
<path d="M611.477 170.353C611.477 170.353 611.377 179.753 616.277 190.053C616.777 191.153 616.477 192.453 615.577 193.253C615.577 193.253 615.577 193.253 615.477 193.253C614.177 194.353 612.177 193.953 611.377 192.353C609.377 188.353 605.577 179.553 605.877 170.253C606.177 157.753 611.477 170.353 611.477 170.353Z" fill="#22272E"/>
<path d="M569.277 544.353C569.177 545.853 571.777 548.653 576.977 548.653C582.177 548.653 579.577 548.653 597.777 548.653C615.977 548.653 622.477 547.753 621.777 542.153C621.077 536.553 622.277 532.353 622.277 532.353C622.277 532.353 624.477 531.253 624.877 530.353C625.277 529.453 624.877 528.453 623.177 519.953C623.077 519.453 622.977 518.853 622.877 518.253C621.377 509.453 620.077 495.253 620.077 495.253C616.177 493.353 588.677 498.553 588.677 498.553C588.677 498.553 591.177 509.153 589.877 514.253C589.777 514.553 589.777 514.753 589.677 514.953C588.077 519.853 569.377 542.953 569.277 544.353Z" fill="#B28D93"/>
<path d="M590.277 511.053C590.377 505.653 588.677 498.553 588.677 498.553C588.677 498.553 616.177 493.353 620.077 495.253C620.077 495.253 620.377 498.453 620.877 502.853C612.477 510.653 601.077 512.553 590.277 511.053Z" fill="#896068"/>
<path d="M579.479 530.253C585.779 527.153 597.679 526.853 607.679 529.553C609.879 530.153 612.179 528.853 612.679 526.653C613.379 524.053 614.279 521.353 614.679 518.153C615.079 514.853 619.179 515.453 621.979 512.353C622.379 515.053 622.779 517.753 623.179 519.853C624.879 528.353 625.179 529.353 624.879 530.253C624.479 531.153 622.279 532.253 622.279 532.253C622.279 532.253 621.179 536.553 621.779 542.053C622.479 547.653 615.979 548.553 597.779 548.553C579.579 548.553 582.179 548.553 576.979 548.553C571.779 548.553 569.179 545.753 569.279 544.253C569.379 543.653 574.379 537.053 579.479 530.253Z" fill="#22272E"/>
<path d="M523.177 495.253C523.177 495.253 523.377 511.353 524.477 519.953C525.477 528.453 525.777 529.453 525.377 530.353C524.977 531.253 522.577 532.353 522.577 532.353C522.577 532.353 521.077 536.653 521.377 542.153C521.677 547.753 515.077 548.653 496.877 548.653C478.677 548.653 481.277 548.653 476.076 548.653C470.876 548.653 468.476 545.853 468.676 544.353C468.876 542.853 489.377 519.853 491.377 514.953C493.377 510.153 491.577 498.453 491.577 498.453C491.577 498.453 519.377 493.353 523.177 495.253Z" fill="#B28D93"/>
<path d="M492.277 506.853C492.177 502.553 491.577 498.553 491.577 498.553C491.577 498.553 519.477 493.353 523.177 495.253C523.177 495.253 523.277 500.353 523.477 506.253C514.277 512.653 502.677 510.353 492.277 506.853Z" fill="#896068"/>
<path d="M480.977 528.953C491.677 526.953 503.377 531.953 513.077 527.553C515.377 526.953 516.377 522.153 517.977 519.153C519.277 516.653 521.077 515.853 523.977 514.453C524.077 516.453 524.277 518.353 524.477 519.953C525.477 528.453 525.777 529.453 525.377 530.353C524.977 531.253 522.577 532.353 522.577 532.353C522.577 532.353 521.077 536.653 521.377 542.153C521.677 547.753 515.077 548.653 496.877 548.653C478.677 548.653 481.277 548.653 476.076 548.653C470.876 548.653 468.476 545.853 468.676 544.353C468.776 543.553 474.976 536.253 480.977 528.953Z" fill="#22272E"/>
<path d="M634.577 305.453C634.577 305.453 642.778 313.853 642.878 333.253C642.978 356.353 628.277 372.953 604.177 372.953C580.077 372.953 532.177 372.253 515.077 372.953C497.977 373.653 500.277 335.953 512.877 324.353C525.477 312.853 623.077 291.353 634.577 305.453Z" fill="#22272E"/>
<path d="M611.177 363.753C608.777 356.253 600.277 344.253 584.777 347.353C567.977 350.653 559.777 356.353 567.677 405.253C574.577 447.653 586.877 495.953 588.777 503.053C588.977 503.653 589.377 504.153 589.977 504.353C591.777 504.953 595.877 506.253 602.177 506.253C609.577 506.253 617.677 503.553 620.877 500.753C621.577 500.153 621.977 499.153 621.877 498.253C621.077 486.253 615.077 394.153 614.577 387.253C613.577 377.353 612.877 369.053 611.177 363.753Z" fill="#22272E"/>
<path d="M499.177 347.353C481.976 348.053 472.876 359.253 477.676 405.253C481.976 446.453 489.676 493.553 491.076 502.453C491.276 503.453 491.876 504.253 492.876 504.553C494.876 505.253 498.677 506.153 504.277 506.153C511.277 506.153 519.177 503.753 522.877 501.053C523.977 500.253 524.577 498.953 524.477 497.653C524.177 486.953 522.977 430.353 526.977 387.353C529.577 359.953 515.277 346.653 499.177 347.353Z" fill="#22272E"/>
<path d="M582.577 375.453C574.9 375.453 568.677 370.259 568.677 363.853C568.677 357.446 574.9 352.253 582.577 352.253C590.254 352.253 596.477 357.446 596.477 363.853C596.477 370.259 590.254 375.453 582.577 375.453Z" stroke="#F2C94C" stroke-width="1.8" stroke-miterlimit="10" stroke-linecap="round" stroke-linejoin="round"/>
<path d="M497.576 375.453C489.9 375.453 483.676 370.259 483.676 363.853C483.676 357.446 489.9 352.253 497.576 352.253C505.253 352.253 511.477 357.446 511.477 363.853C511.477 370.259 505.253 375.453 497.576 375.453Z" stroke="#F2C94C" stroke-width="1.8" stroke-miterlimit="10" stroke-linecap="round" stroke-linejoin="round"/>
<path d="M517.977 261.253C518.577 259.653 518.977 258.653 518.977 258.653L551.077 265.353L550.477 281.253C538.177 277.853 526.977 270.453 517.977 261.253Z" fill="#896068"/>
<path d="M509.477 286.553C511.177 279.253 515.877 266.653 517.977 261.253C526.977 270.553 538.177 277.853 550.577 281.153L550.077 296.453L535.877 340.853L519.077 331.253C506.477 303.753 507.277 295.953 509.477 286.553Z" fill="#B28D93"/>
<path d="M663.178 265.053C664.678 264.453 665.378 262.753 664.778 261.253C661.678 252.453 650.978 223.753 641.978 213.753C631.177 201.853 597.077 201.153 582.577 201.153C568.077 201.153 547.677 203.753 539.577 210.753C532.577 216.753 520.977 246.553 517.777 254.953C517.277 256.253 517.777 257.753 518.877 258.553C522.877 261.253 532.377 267.353 541.377 270.653L537.077 331.253C537.077 331.253 630.477 329.853 634.177 328.053C637.878 326.153 642.678 304.353 641.978 302.053C641.278 299.853 634.577 274.253 634.577 274.253C634.577 274.253 653.378 269.353 663.178 265.053Z" fill="#F2994A"/>
<path d="M634.577 274.253C634.577 274.253 630.877 275.253 629.377 275.553C629.377 275.553 621.177 252.353 620.077 245.853C618.977 239.353 618.977 234.553 620.077 232.353" stroke="#F8AB5D" stroke-width="1.8" stroke-miterlimit="10" stroke-linecap="round" stroke-linejoin="round"/>
<path d="M541.377 270.653C541.377 270.653 542.277 243.453 542.677 237.853C543.077 232.253 543.277 227.453 545.077 223.753" stroke="#F8AB5D" stroke-width="1.8" stroke-miterlimit="10" stroke-linecap="round" stroke-linejoin="round"/>
<path d="M634.577 274.253C634.577 274.253 654.578 268.853 662.778 265.253C662.778 265.253 663.078 266.053 663.478 267.353C655.178 273.453 646.178 278.953 636.477 281.253L634.577 274.253Z" fill="#896068"/>
<path d="M587.077 324.353C590.077 324.053 600.277 326.553 600.277 326.553C610.277 316.353 639.077 291.353 639.077 291.353L636.377 281.153C646.077 278.853 655.077 273.353 663.378 267.253C665.378 273.253 670.878 291.053 669.378 300.153C667.478 311.253 636.577 331.053 612.077 343.653C612.077 343.653 608.777 347.253 600.577 349.753C597.877 350.553 594.177 351.853 592.677 352.053C591.177 352.253 587.277 351.853 584.877 352.053C582.477 352.253 581.377 350.153 578.777 350.453C576.177 350.753 575.477 349.053 573.577 350.153C571.677 351.253 570.277 349.053 570.277 346.853C570.377 344.753 584.077 324.753 587.077 324.353Z" fill="#B28D93"/>
<path d="M639.077 291.453C639.077 291.453 646.278 288.653 651.978 291.453" stroke="#896068" stroke-width="1.8" stroke-miterlimit="10" stroke-linecap="round" stroke-linejoin="round"/>
<path d="M565.877 208.853C565.477 218.453 573.777 226.053 584.277 225.753C594.777 225.453 603.677 217.353 603.977 207.753C604.377 198.153 595.277 195.153 584.677 195.453C574.177 195.753 566.177 199.253 565.877 208.853Z" fill="white"/>
<path d="M599.077 183.853C599.077 183.853 598.877 203.753 599.077 207.453C599.277 211.153 594.977 220.253 582.477 220.253C569.977 220.253 569.377 208.053 569.577 207.453C569.777 206.853 570.277 188.053 570.877 186.853C571.277 185.653 595.477 179.053 599.077 183.853Z" fill="#B28D93"/>
<path d="M591.877 199.753C585.977 206.453 577.777 208.953 569.577 208.553C569.477 207.953 569.577 207.553 569.577 207.453C569.577 207.253 569.677 205.753 569.777 203.553C577.177 205.853 584.477 201.853 591.877 199.753Z" fill="#896068"/>
<path d="M565.177 185.153C565.177 185.153 560.377 178.253 559.177 167.753C557.777 156.153 563.277 148.053 570.777 144.453C575.977 141.953 594.677 137.653 606.277 148.953C613.577 156.053 614.577 179.153 603.177 184.653C588.577 191.653 600.977 193.153 600.377 193.753C600.377 193.753 600.077 195.453 595.877 190.953C591.677 186.353 565.177 185.153 565.177 185.153Z" fill="#22272E"/>
<path d="M562.077 170.853C562.077 170.853 562.877 184.053 563.477 191.953C564.077 199.853 568.077 207.953 581.577 208.353C595.077 208.753 601.477 198.453 602.977 190.753C605.177 179.053 608.977 156.453 590.277 153.853C571.577 151.253 562.077 157.153 562.077 170.853Z" fill="#B28D93"/>
<path d="M562.077 162.753C562.077 162.753 573.677 176.153 591.177 165.553C597.577 161.653 599.077 167.453 599.077 169.753C599.077 172.953 597.577 179.253 602.577 181.853C604.577 182.853 607.678 176.653 605.977 162.753C604.277 148.853 577.977 149.953 569.277 150.953C560.577 151.953 560.677 156.553 562.077 162.753Z" fill="#22272E"/>
<path d="M600.577 180.453C600.577 180.453 602.577 172.153 608.077 173.853C613.677 175.553 611.177 189.053 602.177 190.753" fill="#B28D93"/>
<path d="M580.777 198.753C582.977 198.653 585.577 198.053 587.677 195.753" stroke="#22272E" stroke-width="1.8" stroke-miterlimit="10" stroke-linecap="round" stroke-linejoin="round"/>
<path d="M569.777 183.753C568.777 183.753 567.977 182.953 567.977 181.953V180.953C567.977 179.953 568.777 179.153 569.777 179.153C570.777 179.153 571.577 179.953 571.577 180.953V181.953C571.477 182.953 570.777 183.753 569.777 183.753Z" fill="#22272E"/>
<path d="M587.277 183.753C586.277 183.753 585.477 182.953 585.477 181.953V180.953C585.477 179.953 586.277 179.153 587.277 179.153C588.277 179.153 589.077 179.953 589.077 180.953V181.953C589.077 182.953 588.277 183.753 587.277 183.753Z" fill="#22272E"/>
<path d="M566.177 174.553C566.277 173.353 567.477 171.753 569.777 171.853C572.877 171.953 573.377 173.753 572.977 174.953C572.677 175.953 571.277 174.853 569.677 174.653C567.877 174.553 566.077 175.553 566.177 174.553Z" fill="#22272E"/>
<path d="M578.877 194.553C577.377 194.553 576.077 193.853 575.477 192.853C575.177 192.353 574.877 191.753 574.777 191.053C574.577 190.453 574.577 189.753 574.477 189.053C574.377 187.653 574.577 186.353 574.677 184.853C574.777 183.353 574.977 181.853 574.677 180.353C574.177 181.753 573.677 183.153 573.277 184.553C573.077 185.253 572.877 186.053 572.777 186.753C572.677 187.553 572.577 188.353 572.677 189.053C572.777 190.653 573.177 192.353 574.377 193.553C574.977 194.153 575.777 194.653 576.577 194.753C577.377 194.953 578.177 194.853 578.877 194.553Z" fill="#22272E"/>
<path d="M591.877 174.553C591.777 173.353 590.477 171.753 588.077 171.853C584.677 172.053 584.177 173.753 584.577 174.953C584.977 175.953 586.377 174.853 588.077 174.653C590.077 174.553 591.977 175.553 591.877 174.553Z" fill="#22272E"/>
<path d="M607.977 179.453C607.877 179.053 607.677 178.553 607.277 178.253C607.077 178.053 606.677 178.053 606.377 178.153C606.177 178.153 606.077 178.253 605.977 178.353C605.877 178.453 605.677 178.553 605.677 178.653C605.277 179.053 605.077 179.453 604.877 179.853C604.677 180.253 604.577 180.753 604.477 181.153C604.277 182.053 604.377 182.853 604.477 183.553C604.477 183.853 604.577 184.153 604.477 184.453C604.377 184.753 604.077 184.953 603.777 185.253C604.177 185.353 604.677 185.353 605.177 185.053C605.577 184.753 605.877 184.153 605.977 183.753C606.177 182.853 606.277 182.153 606.377 181.453C606.477 181.153 606.477 180.753 606.577 180.453C606.677 180.153 606.777 179.853 606.877 179.553C606.977 179.353 606.977 179.153 607.277 179.153C607.177 179.053 607.577 179.253 607.977 179.453Z" fill="#22272E"/>
<path d="M588.977 190.653C584.283 190.653 580.477 186.847 580.477 182.153C580.477 177.459 584.283 173.653 588.977 173.653C593.672 173.653 597.477 177.459 597.477 182.153C597.477 186.847 593.672 190.653 588.977 190.653Z" stroke="white" stroke-width="1.8" stroke-miterlimit="10" stroke-linecap="round" stroke-linejoin="round"/>
<path d="M566.077 190.653C561.825 190.653 558.377 186.847 558.377 182.153C558.377 177.459 561.825 173.653 566.077 173.653C570.33 173.653 573.777 177.459 573.777 182.153C573.777 186.847 570.33 190.653 566.077 190.653Z" stroke="white" stroke-width="1.8" stroke-miterlimit="10" stroke-linecap="round" stroke-linejoin="round"/>
<path d="M596.977 179.253H598.377C598.977 179.253 599.577 179.053 600.077 178.653L601.777 177.253" stroke="white" stroke-width="1.8" stroke-miterlimit="10" stroke-linecap="round" stroke-linejoin="round"/>
<path d="M580.677 180.353C580.677 180.353 575.977 178.653 573.777 180.353" stroke="white" stroke-width="1.8" stroke-miterlimit="10" stroke-linecap="round" stroke-linejoin="round"/>
<path d="M496.177 356.353H592.177C594.977 356.353 597.077 353.653 596.277 350.953L589.077 324.453L581.777 297.453C580.977 294.453 578.277 292.353 575.177 292.353H509.277H479.177C476.377 292.353 474.277 295.053 475.077 297.753L489.577 351.253C490.377 354.253 493.077 356.353 496.177 356.353Z" fill="#F2F2F2"/>
<path d="M475.077 297.853L489.577 351.253C490.377 354.253 493.077 356.353 496.177 356.353H592.177" stroke="#F2994A" stroke-width="1.8" stroke-miterlimit="10" stroke-linecap="round" stroke-linejoin="round"/>
<g filter="url(#filter0_d)">
<path d="M528 329.83C524.68 326.915 523.821 322.466 526.081 319.893C528.34 317.32 532.863 317.599 536.182 320.514C539.502 323.43 540.361 327.879 538.101 330.451C535.842 333.024 531.319 332.746 528 329.83Z" fill="#F2994A"/>
</g>
<path d="M611.477 161.553C611.477 161.553 612.877 169.453 618.777 176.153C619.877 177.453 619.777 179.353 618.377 180.353C617.077 181.353 615.277 181.153 614.277 179.853C611.977 176.953 607.977 171.453 605.677 165.553C603.677 160.353 610.977 159.653 611.477 161.553Z" fill="#22272E"/>
<defs>
<filter id="filter0_d" x="520.819" y="315.132" width="22.5431" height="22.081" filterUnits="userSpaceOnUse" color-interpolation-filters="sRGB">
<feFlood flood-opacity="0" result="BackgroundImageFix"/>
<feColorMatrix in="SourceAlpha" type="matrix" values="0 0 0 0 0 0 0 0 0 0 0 0 0 0 0 0 0 0 127 0" result="hardAlpha"/>
<feOffset dy="1"/>
<feGaussianBlur stdDeviation="2"/>
<feComposite in2="hardAlpha" operator="out"/>
<feColorMatrix type="matrix" values="0 0 0 0 0 0 0 0 0 0 0 0 0 0 0 0 0 0 0.25 0"/>
<feBlend mode="normal" in2="BackgroundImageFix" result="effect1_dropShadow"/>
<feBlend mode="normal" in="SourceGraphic" in2="effect1_dropShadow" result="shape"/>
</filter>
</defs>
</svg>
