<svg width="32" height="32" viewBox="0 0 32 32" fill="none" xmlns="http://www.w3.org/2000/svg">
<g id="Icon/Outline/bookmark">
<path id="Mask" fill-rule="evenodd" clip-rule="evenodd" d="M15.7617 20.6745C15.9871 20.6745 16.2137 20.7319 16.4177 20.8465L22.6671 24.3812V7.11188C22.6671 6.84388 22.5057 6.66654 22.4004 6.66654H9.60039C9.49372 6.66654 9.33372 6.84388 9.33372 7.11188V24.3119L15.0751 20.8652C15.2871 20.7385 15.5244 20.6745 15.7617 20.6745ZM8.00039 27.9999C7.77372 27.9999 7.54705 27.9425 7.34305 27.8265C6.92572 27.5905 6.66705 27.1465 6.66705 26.6665V7.11188C6.66705 5.39588 7.98305 3.99988 9.60039 3.99988H22.4004C24.0177 3.99988 25.3337 5.39588 25.3337 7.11188V26.6665C25.3337 27.1412 25.0817 27.5799 24.6724 27.8185C24.2617 28.0585 23.7577 28.0625 23.3444 27.8279L15.7817 23.5505L8.68572 27.8105C8.47505 27.9359 8.23772 27.9999 8.00039 27.9999Z" fill="#231F20"/>
<mask id="mask0" style="mask-type:alpha" maskUnits="userSpaceOnUse" x="6" y="3" width="20" height="26">
<path id="Mask_2" fill-rule="evenodd" clip-rule="evenodd" d="M15.7617 20.6745C15.9871 20.6745 16.2137 20.7319 16.4177 20.8465L22.6671 24.3812V7.11188C22.6671 6.84388 22.5057 6.66654 22.4004 6.66654H9.60039C9.49372 6.66654 9.33372 6.84388 9.33372 7.11188V24.3119L15.0751 20.8652C15.2871 20.7385 15.5244 20.6745 15.7617 20.6745ZM8.00039 27.9999C7.77372 27.9999 7.54705 27.9425 7.34305 27.8265C6.92572 27.5905 6.66705 27.1465 6.66705 26.6665V7.11188C6.66705 5.39588 7.98305 3.99988 9.60039 3.99988H22.4004C24.0177 3.99988 25.3337 5.39588 25.3337 7.11188V26.6665C25.3337 27.1412 25.0817 27.5799 24.6724 27.8185C24.2617 28.0585 23.7577 28.0625 23.3444 27.8279L15.7817 23.5505L8.68572 27.8105C8.47505 27.9359 8.23772 27.9999 8.00039 27.9999Z" fill="white"/>
</mask>
<g mask="url(#mask0)">
<g id="&#240;&#159;&#142;&#168; Color">
<rect id="Base" width="32" height="32" fill="#979797"/>
</g>
</g>
</g>
</svg>
