<svg width="24" height="24" viewBox="0 0 24 24" fill="none" xmlns="http://www.w3.org/2000/svg">
<g id="instagram" clip-path="url(#clip0_68:661)">
<path id="Vector" d="M1.50002 1.63302C-0.385984 3.59202 1.61529e-05 5.67302 1.61529e-05 11.995C1.61529e-05 17.245 -0.915984 22.508 3.87802 23.747C5.37502 24.132 18.639 24.132 20.134 23.745C22.13 23.23 23.754 21.611 23.976 18.788C24.007 18.394 24.007 5.60302 23.975 5.20102C23.739 2.19402 21.888 0.461016 19.449 0.110016C18.89 0.0290159 18.778 0.00501588 15.91 1.58772e-05C5.73702 0.00501588 3.50702 -0.447984 1.50002 1.63302Z" fill="url(#paint0_linear_68:661)"/>
<path id="Vector_2" d="M11.998 3.13905C8.367 3.13905 4.919 2.81605 3.602 6.19605C3.058 7.59205 3.137 9.40505 3.137 12.001C3.137 14.279 3.064 16.42 3.602 17.805C4.916 21.187 8.392 20.863 11.996 20.863C15.473 20.863 19.058 21.225 20.391 17.805C20.936 16.395 20.856 14.609 20.856 12.001C20.856 8.53905 21.047 6.30405 19.368 4.62605C17.668 2.92605 15.369 3.13905 11.994 3.13905H11.998ZM11.204 4.73605C18.778 4.72405 19.742 3.88205 19.21 15.579C19.021 19.716 15.871 19.262 11.999 19.262C4.939 19.262 4.736 19.06 4.736 11.997C4.736 4.85205 5.296 4.74005 11.204 4.73405V4.73605ZM16.728 6.20705C16.141 6.20705 15.665 6.68305 15.665 7.27005C15.665 7.85705 16.141 8.33305 16.728 8.33305C17.315 8.33305 17.791 7.85705 17.791 7.27005C17.791 6.68305 17.315 6.20705 16.728 6.20705ZM11.998 7.45005C9.485 7.45005 7.448 9.48805 7.448 12.001C7.448 14.514 9.485 16.551 11.998 16.551C14.511 16.551 16.547 14.514 16.547 12.001C16.547 9.48805 14.511 7.45005 11.998 7.45005ZM11.998 9.04705C15.903 9.04705 15.908 14.955 11.998 14.955C8.094 14.955 8.088 9.04705 11.998 9.04705Z" fill="white"/>
</g>
<defs>
<linearGradient id="paint0_linear_68:661" x1="1.54604" y1="22.4671" x2="23.8515" y2="3.16199" gradientUnits="userSpaceOnUse">
<stop stop-color="#FFDD55"/>
<stop offset="0.5" stop-color="#FF543E"/>
<stop offset="1" stop-color="#C837AB"/>
</linearGradient>
<clipPath id="clip0_68:661">
<rect width="24" height="24" fill="white"/>
</clipPath>
</defs>
</svg>
