<svg width="32" height="32" viewBox="0 0 32 32" fill="none" xmlns="http://www.w3.org/2000/svg">
<g id="Icon/Outline/log-out">
<path id="Mask" fill-rule="evenodd" clip-rule="evenodd" d="M10.6666 6.66668C10.6666 7.40001 10.0666 8.00001 9.33331 8.00001H7.99998V24H9.33331C10.0666 24 10.6666 24.6 10.6666 25.3333C10.6666 26.0667 10.0666 26.6667 9.33331 26.6667H6.66665C5.93331 26.6667 5.33331 26.0667 5.33331 25.3333V6.66668C5.33331 5.93334 5.93331 5.33334 6.66665 5.33334H9.33331C10.0666 5.33334 10.6666 5.93334 10.6666 6.66668ZM24.0052 9.89974L27.7572 15.2331C28.0905 15.7051 28.0798 16.3384 27.7332 16.7997L23.7332 22.1331C23.4718 22.4824 23.0705 22.6664 22.6652 22.6664C22.3878 22.6664 22.1065 22.5797 21.8665 22.3997C21.2772 21.9584 21.1585 21.1224 21.5998 20.5344L24.0012 17.3331H23.9998H13.3332C12.5972 17.3331 11.9998 16.7371 11.9998 15.9997C11.9998 15.2624 12.5972 14.6664 13.3332 14.6664H23.9998C24.0219 14.6664 24.0423 14.6725 24.0629 14.6786C24.0797 14.6836 24.0965 14.6886 24.1145 14.6904L21.8238 11.4331C21.3998 10.8317 21.5452 9.99974 22.1478 9.57574C22.7492 9.15041 23.5812 9.29708 24.0052 9.89974Z" fill="#231F20"/>
<mask id="mask0" style="mask-type:alpha" maskUnits="userSpaceOnUse" x="5" y="5" width="24" height="22">
<path id="Mask_2" fill-rule="evenodd" clip-rule="evenodd" d="M10.6666 6.66668C10.6666 7.40001 10.0666 8.00001 9.33331 8.00001H7.99998V24H9.33331C10.0666 24 10.6666 24.6 10.6666 25.3333C10.6666 26.0667 10.0666 26.6667 9.33331 26.6667H6.66665C5.93331 26.6667 5.33331 26.0667 5.33331 25.3333V6.66668C5.33331 5.93334 5.93331 5.33334 6.66665 5.33334H9.33331C10.0666 5.33334 10.6666 5.93334 10.6666 6.66668ZM24.0052 9.89974L27.7572 15.2331C28.0905 15.7051 28.0798 16.3384 27.7332 16.7997L23.7332 22.1331C23.4718 22.4824 23.0705 22.6664 22.6652 22.6664C22.3878 22.6664 22.1065 22.5797 21.8665 22.3997C21.2772 21.9584 21.1585 21.1224 21.5998 20.5344L24.0012 17.3331H23.9998H13.3332C12.5972 17.3331 11.9998 16.7371 11.9998 15.9997C11.9998 15.2624 12.5972 14.6664 13.3332 14.6664H23.9998C24.0219 14.6664 24.0423 14.6725 24.0629 14.6786C24.0797 14.6836 24.0965 14.6886 24.1145 14.6904L21.8238 11.4331C21.3998 10.8317 21.5452 9.99974 22.1478 9.57574C22.7492 9.15041 23.5812 9.29708 24.0052 9.89974Z" fill="white"/>
</mask>
<g mask="url(#mask0)">
<g id="&#240;&#159;&#142;&#168; Color">
<rect id="Base" width="32" height="32" fill="#979797"/>
</g>
</g>
</g>
</svg>
