<svg width="32" height="32" viewBox="0 0 32 32" fill="none" xmlns="http://www.w3.org/2000/svg">
<g id="Icon/Outline/message-circle">
<path id="Mask" fill-rule="evenodd" clip-rule="evenodd" d="M9.33361 14.6657C9.33361 13.9297 9.93095 13.3324 10.6669 13.3324C11.4029 13.3324 12.0003 13.9297 12.0003 14.6657C12.0003 15.4017 11.4029 15.999 10.6669 15.999C9.93095 15.999 9.33361 15.4017 9.33361 14.6657ZM16.0003 13.3324C15.2643 13.3324 14.6669 13.9297 14.6669 14.6657C14.6669 15.4017 15.2643 15.999 16.0003 15.999C16.7363 15.999 17.3336 15.4017 17.3336 14.6657C17.3336 13.9297 16.7363 13.3324 16.0003 13.3324ZM21.3336 13.3324C20.5976 13.3324 20.0003 13.9297 20.0003 14.6657C20.0003 15.4017 20.5976 15.999 21.3336 15.999C22.0696 15.999 22.6669 15.4017 22.6669 14.6657C22.6669 13.9297 22.0696 13.3324 21.3336 13.3324ZM26.5315 16.3922C25.8555 20.7309 22.3582 24.3296 18.0262 25.1416C15.9342 25.5362 13.8035 25.3109 11.8702 24.4922C11.3222 24.2602 10.7555 24.1429 10.1995 24.1429C9.94615 24.1429 9.69549 24.1669 9.44882 24.2162L5.69949 24.9656L6.45015 21.2096C6.60749 20.4296 6.51149 19.5949 6.17415 18.7962C5.35549 16.8629 5.13149 14.7336 5.52482 12.6402C6.33682 8.30824 9.93415 4.81091 14.2742 4.13491C17.7275 3.59758 21.1048 4.68558 23.5422 7.12291C25.9808 9.56158 27.0702 12.9402 26.5315 16.3922ZM25.4288 5.23757C22.3822 2.19224 18.1688 0.833572 13.8635 1.49891C8.42749 2.34691 3.92082 6.72557 2.90349 12.1482C2.41282 14.7589 2.69549 17.4176 3.71815 19.8349C3.84749 20.1429 3.88749 20.4296 3.83682 20.6869L2.69282 26.4042C2.60482 26.8416 2.74215 27.2936 3.05815 27.6082C3.31015 27.8616 3.65015 27.9989 4.00082 27.9989C4.08749 27.9989 4.17415 27.9909 4.26215 27.9736L9.97282 26.8309C10.3008 26.7682 10.6182 26.8602 10.8302 26.9482C13.2502 27.9709 15.9088 28.2522 18.5168 27.7629C23.9408 26.7456 28.3195 22.2389 29.1675 16.8029C29.8368 12.5002 28.4755 8.28424 25.4288 5.23757Z" fill="#231F20"/>
<mask id="mask0" style="mask-type:alpha" maskUnits="userSpaceOnUse" x="2" y="1" width="28" height="27">
<path id="Mask_2" fill-rule="evenodd" clip-rule="evenodd" d="M9.33361 14.6657C9.33361 13.9297 9.93095 13.3324 10.6669 13.3324C11.4029 13.3324 12.0003 13.9297 12.0003 14.6657C12.0003 15.4017 11.4029 15.999 10.6669 15.999C9.93095 15.999 9.33361 15.4017 9.33361 14.6657ZM16.0003 13.3324C15.2643 13.3324 14.6669 13.9297 14.6669 14.6657C14.6669 15.4017 15.2643 15.999 16.0003 15.999C16.7363 15.999 17.3336 15.4017 17.3336 14.6657C17.3336 13.9297 16.7363 13.3324 16.0003 13.3324ZM21.3336 13.3324C20.5976 13.3324 20.0003 13.9297 20.0003 14.6657C20.0003 15.4017 20.5976 15.999 21.3336 15.999C22.0696 15.999 22.6669 15.4017 22.6669 14.6657C22.6669 13.9297 22.0696 13.3324 21.3336 13.3324ZM26.5315 16.3922C25.8555 20.7309 22.3582 24.3296 18.0262 25.1416C15.9342 25.5362 13.8035 25.3109 11.8702 24.4922C11.3222 24.2602 10.7555 24.1429 10.1995 24.1429C9.94615 24.1429 9.69549 24.1669 9.44882 24.2162L5.69949 24.9656L6.45015 21.2096C6.60749 20.4296 6.51149 19.5949 6.17415 18.7962C5.35549 16.8629 5.13149 14.7336 5.52482 12.6402C6.33682 8.30824 9.93415 4.81091 14.2742 4.13491C17.7275 3.59758 21.1048 4.68558 23.5422 7.12291C25.9808 9.56158 27.0702 12.9402 26.5315 16.3922ZM25.4288 5.23757C22.3822 2.19224 18.1688 0.833572 13.8635 1.49891C8.42749 2.34691 3.92082 6.72557 2.90349 12.1482C2.41282 14.7589 2.69549 17.4176 3.71815 19.8349C3.84749 20.1429 3.88749 20.4296 3.83682 20.6869L2.69282 26.4042C2.60482 26.8416 2.74215 27.2936 3.05815 27.6082C3.31015 27.8616 3.65015 27.9989 4.00082 27.9989C4.08749 27.9989 4.17415 27.9909 4.26215 27.9736L9.97282 26.8309C10.3008 26.7682 10.6182 26.8602 10.8302 26.9482C13.2502 27.9709 15.9088 28.2522 18.5168 27.7629C23.9408 26.7456 28.3195 22.2389 29.1675 16.8029C29.8368 12.5002 28.4755 8.28424 25.4288 5.23757Z" fill="white"/>
</mask>
<g mask="url(#mask0)">
<g id="&#240;&#159;&#142;&#168; Color">
<rect id="Base" width="32" height="32" fill="#276AA5"/>
</g>
</g>
</g>
</svg>
