<svg width="32" height="32" viewBox="0 0 32 32" fill="none" xmlns="http://www.w3.org/2000/svg">
<g id="Icon/Outline/settings">
<path id="Mask" fill-rule="evenodd" clip-rule="evenodd" d="M5.8704 15.4961C7.3584 16.0068 8.54374 17.2521 9.03974 18.8308L9.09307 18.9908C9.66107 20.6655 9.4304 22.4681 8.4784 23.8201C8.30507 24.0655 8.34374 24.3588 8.5264 24.4975L11.2891 26.5961C11.3864 26.6695 11.4811 26.6695 11.5397 26.6628C11.6064 26.6521 11.7037 26.6161 11.7824 26.5041L12.0904 26.0668C13.0091 24.7641 14.4891 23.9601 16.0517 23.9148C17.8064 23.8788 19.3824 24.6828 20.3637 26.1001L20.5211 26.3281C20.5997 26.4401 20.6957 26.4775 20.7637 26.4881C20.8224 26.5001 20.9184 26.4961 21.0144 26.4215L23.7624 24.3481C23.9544 24.2041 23.9971 23.8961 23.8544 23.6895L23.5077 23.1895C22.6144 21.8988 22.3491 20.2241 22.7984 18.7108C23.2864 17.0628 24.5277 15.7588 26.1211 15.2255L26.3891 15.1348C26.6037 15.0641 26.7197 14.7975 26.6437 14.5521L25.5944 11.1908C25.5451 11.0335 25.4437 10.9628 25.3877 10.9335C25.3077 10.8921 25.2211 10.8855 25.1384 10.9135L24.6851 11.0641C23.1344 11.5801 21.4237 11.3001 20.1104 10.3121L19.9664 10.2041C18.7184 9.26548 17.9757 7.75214 17.9811 6.15748L17.9837 5.78414C17.9837 5.60681 17.8997 5.49614 17.8491 5.44548C17.8011 5.39614 17.7197 5.33748 17.6051 5.33748L14.2091 5.33348C14.0011 5.33348 13.8317 5.53214 13.8304 5.77748L13.8291 6.10014C13.8224 7.72014 13.0637 9.26148 11.7997 10.2255L11.6277 10.3561C10.2371 11.4135 8.42374 11.7121 6.78107 11.1521C6.7184 11.1308 6.65974 11.1348 6.60374 11.1641C6.56107 11.1855 6.48374 11.2401 6.4464 11.3615L5.35707 14.8228C5.2784 15.0748 5.40774 15.3375 5.65174 15.4215L5.8704 15.4961ZM11.4851 29.3335C10.8371 29.3335 10.2077 29.1228 9.67708 28.7188L6.91441 26.6215C5.59441 25.6215 5.30241 23.6975 6.26241 22.3335C6.76108 21.6268 6.86374 20.7188 6.57041 19.8575L6.49708 19.6335C6.25308 18.8575 5.69574 18.2548 5.00641 18.0188H5.00508L4.78774 17.9428C3.16374 17.3868 2.29708 15.6655 2.81308 14.0228L3.90108 10.5628C4.14774 9.78014 4.67974 9.14814 5.39974 8.78414C6.10374 8.42948 6.89974 8.37481 7.64374 8.62948C8.44241 8.90148 9.32908 8.75348 10.0131 8.23348L10.1851 8.10281C10.7931 7.63881 11.1597 6.88548 11.1624 6.08948L11.1637 5.76814C11.1704 4.05614 12.5371 2.66681 14.2077 2.66681H14.2131L17.6091 2.67081C18.4117 2.67214 19.1691 2.98948 19.7397 3.56414C20.3304 4.15748 20.6531 4.95081 20.6504 5.79748L20.6477 6.16948C20.6451 6.92414 20.9904 7.63748 21.5731 8.07481L21.7157 8.18281C22.3277 8.64281 23.1251 8.77481 23.8411 8.53481L24.2931 8.38414C25.0624 8.12814 25.8811 8.19081 26.6024 8.56014C27.3424 8.93881 27.8891 9.59081 28.1397 10.3975L29.1891 13.7588C29.6957 15.3828 28.8184 17.1348 27.2357 17.6641L26.9677 17.7535C26.1997 18.0121 25.5957 18.6521 25.3544 19.4681C25.1331 20.2161 25.2611 21.0388 25.6997 21.6708L26.0464 22.1708C26.9984 23.5468 26.6944 25.4775 25.3691 26.4761L22.6211 28.5508C21.9611 29.0495 21.1517 29.2508 20.3397 29.1215C19.5211 28.9895 18.8064 28.5361 18.3277 27.8455L18.1704 27.6161C17.7037 26.9441 16.9571 26.5361 16.1744 26.5801C15.3904 26.6015 14.7131 26.9735 14.2704 27.6028L13.9624 28.0401C13.4797 28.7241 12.7637 29.1708 11.9491 29.2988C11.7931 29.3228 11.6384 29.3335 11.4851 29.3335ZM16 14C14.8973 14 14 14.8973 14 16C14 17.1027 14.8973 18 16 18C17.1027 18 18 17.1027 18 16C18 14.8973 17.1027 14 16 14ZM16 20.6667C13.4267 20.6667 11.3333 18.5733 11.3333 16C11.3333 13.4267 13.4267 11.3333 16 11.3333C18.5733 11.3333 20.6667 13.4267 20.6667 16C20.6667 18.5733 18.5733 20.6667 16 20.6667Z" fill="#231F20"/>
<mask id="mask0" style="mask-type:alpha" maskUnits="userSpaceOnUse" x="2" y="2" width="28" height="28">
<path id="Mask_2" fill-rule="evenodd" clip-rule="evenodd" d="M5.8704 15.4961C7.3584 16.0068 8.54374 17.2521 9.03974 18.8308L9.09307 18.9908C9.66107 20.6655 9.4304 22.4681 8.4784 23.8201C8.30507 24.0655 8.34374 24.3588 8.5264 24.4975L11.2891 26.5961C11.3864 26.6695 11.4811 26.6695 11.5397 26.6628C11.6064 26.6521 11.7037 26.6161 11.7824 26.5041L12.0904 26.0668C13.0091 24.7641 14.4891 23.9601 16.0517 23.9148C17.8064 23.8788 19.3824 24.6828 20.3637 26.1001L20.5211 26.3281C20.5997 26.4401 20.6957 26.4775 20.7637 26.4881C20.8224 26.5001 20.9184 26.4961 21.0144 26.4215L23.7624 24.3481C23.9544 24.2041 23.9971 23.8961 23.8544 23.6895L23.5077 23.1895C22.6144 21.8988 22.3491 20.2241 22.7984 18.7108C23.2864 17.0628 24.5277 15.7588 26.1211 15.2255L26.3891 15.1348C26.6037 15.0641 26.7197 14.7975 26.6437 14.5521L25.5944 11.1908C25.5451 11.0335 25.4437 10.9628 25.3877 10.9335C25.3077 10.8921 25.2211 10.8855 25.1384 10.9135L24.6851 11.0641C23.1344 11.5801 21.4237 11.3001 20.1104 10.3121L19.9664 10.2041C18.7184 9.26548 17.9757 7.75214 17.9811 6.15748L17.9837 5.78414C17.9837 5.60681 17.8997 5.49614 17.8491 5.44548C17.8011 5.39614 17.7197 5.33748 17.6051 5.33748L14.2091 5.33348C14.0011 5.33348 13.8317 5.53214 13.8304 5.77748L13.8291 6.10014C13.8224 7.72014 13.0637 9.26148 11.7997 10.2255L11.6277 10.3561C10.2371 11.4135 8.42374 11.7121 6.78107 11.1521C6.7184 11.1308 6.65974 11.1348 6.60374 11.1641C6.56107 11.1855 6.48374 11.2401 6.4464 11.3615L5.35707 14.8228C5.2784 15.0748 5.40774 15.3375 5.65174 15.4215L5.8704 15.4961ZM11.4851 29.3335C10.8371 29.3335 10.2077 29.1228 9.67708 28.7188L6.91441 26.6215C5.59441 25.6215 5.30241 23.6975 6.26241 22.3335C6.76108 21.6268 6.86374 20.7188 6.57041 19.8575L6.49708 19.6335C6.25308 18.8575 5.69574 18.2548 5.00641 18.0188H5.00508L4.78774 17.9428C3.16374 17.3868 2.29708 15.6655 2.81308 14.0228L3.90108 10.5628C4.14774 9.78014 4.67974 9.14814 5.39974 8.78414C6.10374 8.42948 6.89974 8.37481 7.64374 8.62948C8.44241 8.90148 9.32908 8.75348 10.0131 8.23348L10.1851 8.10281C10.7931 7.63881 11.1597 6.88548 11.1624 6.08948L11.1637 5.76814C11.1704 4.05614 12.5371 2.66681 14.2077 2.66681H14.2131L17.6091 2.67081C18.4117 2.67214 19.1691 2.98948 19.7397 3.56414C20.3304 4.15748 20.6531 4.95081 20.6504 5.79748L20.6477 6.16948C20.6451 6.92414 20.9904 7.63748 21.5731 8.07481L21.7157 8.18281C22.3277 8.64281 23.1251 8.77481 23.8411 8.53481L24.2931 8.38414C25.0624 8.12814 25.8811 8.19081 26.6024 8.56014C27.3424 8.93881 27.8891 9.59081 28.1397 10.3975L29.1891 13.7588C29.6957 15.3828 28.8184 17.1348 27.2357 17.6641L26.9677 17.7535C26.1997 18.0121 25.5957 18.6521 25.3544 19.4681C25.1331 20.2161 25.2611 21.0388 25.6997 21.6708L26.0464 22.1708C26.9984 23.5468 26.6944 25.4775 25.3691 26.4761L22.6211 28.5508C21.9611 29.0495 21.1517 29.2508 20.3397 29.1215C19.5211 28.9895 18.8064 28.5361 18.3277 27.8455L18.1704 27.6161C17.7037 26.9441 16.9571 26.5361 16.1744 26.5801C15.3904 26.6015 14.7131 26.9735 14.2704 27.6028L13.9624 28.0401C13.4797 28.7241 12.7637 29.1708 11.9491 29.2988C11.7931 29.3228 11.6384 29.3335 11.4851 29.3335ZM16 14C14.8973 14 14 14.8973 14 16C14 17.1027 14.8973 18 16 18C17.1027 18 18 17.1027 18 16C18 14.8973 17.1027 14 16 14ZM16 20.6667C13.4267 20.6667 11.3333 18.5733 11.3333 16C11.3333 13.4267 13.4267 11.3333 16 11.3333C18.5733 11.3333 20.6667 13.4267 20.6667 16C20.6667 18.5733 18.5733 20.6667 16 20.6667Z" fill="white"/>
</mask>
<g mask="url(#mask0)">
<g id="&#240;&#159;&#142;&#168; Color">
<rect id="Base" width="32" height="32" fill="#979797"/>
</g>
</g>
</g>
</svg>
