<svg width="24" height="24" viewBox="0 0 24 24" fill="none" xmlns="http://www.w3.org/2000/svg">
<path d="M12 24C18.6274 24 24 18.6274 24 12C24 5.37258 18.6274 0 12 0C5.37258 0 0 5.37258 0 12C0 18.6274 5.37258 24 12 24Z" fill="#039BE5"/>
<path d="M5.49102 11.74L17.061 7.27896C17.598 7.08496 18.067 7.40996 17.893 8.22196L17.894 8.22096L15.924 17.502C15.778 18.16 15.387 18.32 14.84 18.01L11.84 15.799L10.393 17.193C10.233 17.353 10.098 17.488 9.78802 17.488L10.001 14.435L15.561 9.41196C15.803 9.19896 15.507 9.07896 15.188 9.29096L8.31702 13.617L5.35502 12.693C4.71202 12.489 4.69802 12.05 5.49102 11.74Z" fill="white"/>
</svg>
