<svg width="24" height="24" viewBox="0 0 24 24" fill="none" xmlns="http://www.w3.org/2000/svg">
<path d="M12 24C18.6274 24 24 18.6274 24 12C24 5.37258 18.6274 0 12 0C5.37258 0 0 5.37258 0 12C0 18.6274 5.37258 24 12 24Z" fill="#4D76A1"/>
<path fill-rule="evenodd" clip-rule="evenodd" d="M11.5467 17.2631H12.4886C12.4886 17.2631 12.7731 17.2319 12.9183 17.0753C13.052 16.9315 13.0477 16.6616 13.0477 16.6616C13.0477 16.6616 13.0293 15.3978 13.6159 15.2117C14.1941 15.0284 14.9366 16.4331 15.7235 16.9732C16.3186 17.382 16.7709 17.2924 16.7709 17.2924L18.8751 17.2631C18.8751 17.2631 19.9759 17.1953 19.4539 16.3298C19.4112 16.259 19.15 15.6896 17.8894 14.5195C16.57 13.2948 16.7467 13.4929 18.336 11.3745C19.304 10.0844 19.691 9.29681 19.5701 8.95947C19.4548 8.63818 18.7429 8.7231 18.7429 8.7231L16.3736 8.73786C16.3736 8.73786 16.198 8.7139 16.0677 8.79176C15.9405 8.86813 15.8585 9.04611 15.8585 9.04611C15.8585 9.04611 15.4835 10.0444 14.9834 10.8934C13.9284 12.685 13.5066 12.7795 13.3342 12.6683C12.9331 12.409 13.0332 11.6267 13.0332 11.071C13.0332 9.33489 13.2965 8.61101 12.5204 8.42362C12.2629 8.36138 12.0734 8.3203 11.4147 8.31367C10.5694 8.3049 9.85382 8.31624 9.44867 8.51475C9.17914 8.64673 8.97122 8.94086 9.09786 8.95776C9.25444 8.97872 9.60911 9.05338 9.79713 9.30943C10.0399 9.63971 10.0314 10.3816 10.0314 10.3816C10.0314 10.3816 10.1708 12.4253 9.70558 12.6792C9.38621 12.8533 8.94812 12.4978 8.00755 10.8725C7.52561 10.0399 7.16175 9.11969 7.16175 9.11969C7.16175 9.11969 7.09158 8.94771 6.96645 8.85572C6.81457 8.74428 6.60237 8.70877 6.60237 8.70877L4.35095 8.72353C4.35095 8.72353 4.01297 8.73294 3.8889 8.8799C3.77852 9.0106 3.88013 9.28098 3.88013 9.28098C3.88013 9.28098 5.64276 13.4048 7.63855 15.4829C9.46857 17.3882 11.5467 17.2631 11.5467 17.2631Z" fill="white"/>
</svg>
