<svg width="129" height="30" viewBox="0 0 129 30" fill="none" xmlns="http://www.w3.org/2000/svg">
<line x1="4.5" y1="5.5" x2="4.5" y2="24.5" stroke="#FAFAFA" stroke-linecap="round"/>
<line x1="32.5" y1="5.5" x2="32.5" y2="24.5" stroke="#FAFAFA" stroke-linecap="round"/>
<line x1="63.5" y1="5.5" x2="63.5" y2="24.5" stroke="#FAFAFA" stroke-linecap="round"/>
<line x1="84.5" y1="5.5" x2="84.5" y2="24.5" stroke="#FAFAFA" stroke-linecap="round"/>
<line x1="112.5" y1="5.5" x2="112.5" y2="24.5" stroke="#FAFAFA" stroke-linecap="round"/>
<line x1="8.5" y1="8.5" x2="8.5" y2="21.5" stroke="#FAFAFA" stroke-linecap="round"/>
<line x1="36.5" y1="8.5" x2="36.5" y2="21.5" stroke="#FAFAFA" stroke-linecap="round"/>
<line x1="60.5" y1="8.5" x2="60.5" y2="21.5" stroke="#FAFAFA" stroke-linecap="round"/>
<line x1="88.5" y1="8.5" x2="88.5" y2="21.5" stroke="#FAFAFA" stroke-linecap="round"/>
<line x1="116.5" y1="8.5" x2="116.5" y2="21.5" stroke="#FAFAFA" stroke-linecap="round"/>
<line x1="0.5" y1="10.5" x2="0.5" y2="20.5" stroke="#FAFAFA" stroke-linecap="round"/>
<line x1="28.5" y1="10.5" x2="28.5" y2="20.5" stroke="#FAFAFA" stroke-linecap="round"/>
<line x1="56.5" y1="10.5" x2="56.5" y2="20.5" stroke="#FAFAFA" stroke-linecap="round"/>
<line x1="80.5" y1="10.5" x2="80.5" y2="20.5" stroke="#FAFAFA" stroke-linecap="round"/>
<line x1="108.5" y1="10.5" x2="108.5" y2="20.5" stroke="#FAFAFA" stroke-linecap="round"/>
<line x1="12.5" y1="6.5" x2="12.5" y2="23.5" stroke="#FAFAFA" stroke-linecap="round"/>
<line x1="40.5" y1="6.5" x2="40.5" y2="23.5" stroke="#FAFAFA" stroke-linecap="round"/>
<line x1="92.5" y1="6.5" x2="92.5" y2="23.5" stroke="#FAFAFA" stroke-linecap="round"/>
<line x1="120.5" y1="6.5" x2="120.5" y2="23.5" stroke="#FAFAFA" stroke-linecap="round"/>
<line x1="16.5" y1="8.5" x2="16.5" y2="21.5" stroke="#FAFAFA" stroke-linecap="round"/>
<line x1="44.5" y1="8.5" x2="44.5" y2="21.5" stroke="#FAFAFA" stroke-linecap="round"/>
<line x1="68.5" y1="8.5" x2="68.5" y2="21.5" stroke="#FAFAFA" stroke-linecap="round"/>
<line x1="96.5" y1="8.5" x2="96.5" y2="21.5" stroke="#FAFAFA" stroke-linecap="round"/>
<line x1="124.5" y1="8.5" x2="124.5" y2="21.5" stroke="#FAFAFA" stroke-linecap="round"/>
<line x1="20.5" y1="8.5" x2="20.5" y2="21.5" stroke="#FAFAFA" stroke-linecap="round"/>
<line x1="48.5" y1="8.5" x2="48.5" y2="21.5" stroke="#FAFAFA" stroke-linecap="round"/>
<line x1="72.5" y1="8.5" x2="72.5" y2="21.5" stroke="#FAFAFA" stroke-linecap="round"/>
<line x1="100.5" y1="8.5" x2="100.5" y2="21.5" stroke="#FAFAFA" stroke-linecap="round"/>
<line x1="128.5" y1="8.5" x2="128.5" y2="21.5" stroke="#FAFAFA" stroke-linecap="round"/>
<line x1="24.5" y1="0.5" x2="24.5" y2="29.5" stroke="#FAFAFA" stroke-linecap="round"/>
<line x1="52.5" y1="0.5" x2="52.5" y2="29.5" stroke="#FAFAFA" stroke-linecap="round"/>
<line x1="76.5" y1="0.5" x2="76.5" y2="29.5" stroke="#FAFAFA" stroke-linecap="round"/>
<line x1="104.5" y1="0.5" x2="104.5" y2="29.5" stroke="#FAFAFA" stroke-linecap="round"/>
</svg>
